<svg id="Capa_1" data-name="Capa 1" xmlns="http://www.w3.org/2000/svg" xmlns:xlink="http://www.w3.org/1999/xlink" viewBox="0 0 1133.82 809.01"><defs><style>.cls-1,.cls-10,.cls-13,.cls-14,.cls-17,.cls-22,.cls-24,.cls-26,.cls-31,.cls-34,.cls-36,.cls-41,.cls-42,.cls-8{fill:none;}.cls-2{fill:#f4bf8c;}.cls-3{fill:#000100;}.cls-4{fill:#ef9d70;}.cls-5{fill:#ba4e11;}.cls-6{clip-path:url(#clip-path);}.cls-7{fill:#d35822;}.cls-13,.cls-14,.cls-17,.cls-24,.cls-8{stroke:#000100;}.cls-10,.cls-14,.cls-24,.cls-31,.cls-34,.cls-36,.cls-41,.cls-8{stroke-miterlimit:10;}.cls-13,.cls-17,.cls-22,.cls-26,.cls-31,.cls-36,.cls-8{stroke-width:0.75px;}.cls-9{fill:#d17d54;}.cls-10{stroke:#ba4e11;stroke-width:0.5px;}.cls-11{fill:#507d8c;}.cls-12{fill:#fff;}.cls-13,.cls-22,.cls-42{stroke-linecap:round;}.cls-13,.cls-17,.cls-22,.cls-26,.cls-42{stroke-linejoin:round;}.cls-14{stroke-width:1.5px;}.cls-15{fill:#f8b133;}.cls-16{fill:#b7663d;}.cls-18{fill:#c59ea5;}.cls-19{fill:#231f20;}.cls-20{fill:#ff7300;}.cls-21{fill:#9e502e;}.cls-22{stroke:#000;}.cls-23{fill:#4c2714;}.cls-25{fill:#0c1832;}.cls-26,.cls-31{stroke:#546a91;}.cls-27{fill:#546a91;}.cls-28{fill:#1d1d1e;}.cls-29{clip-path:url(#clip-path-2);}.cls-30{fill:#1f304f;}.cls-32{fill:#466ac6;}.cls-33{clip-path:url(#clip-path-3);}.cls-34{stroke:#172c3f;}.cls-35{fill:#172c3f;}.cls-36{stroke:#2757aa;}.cls-37{fill:#2757aa;}.cls-38{fill:#4670b5;}.cls-39{fill:#e8bd8e;}.cls-40{fill:#dd9957;}.cls-41,.cls-42{stroke:#1d1d1b;}</style><clipPath id="clip-path"><path class="cls-1" d="M995.43,334.77S975.31,317.09,958.77,306c-11-7.41-26.82-9.54-32.95-9.48-3.22,0-21.18-1.23-21.18-1.23-8.65,9.89-25.27,6.83-28.74,2.86a29.14,29.14,0,0,1,2.21-5.06s-19.53-2.53-31.19-2c-9.48.44-30.71-7.28-30.71-7.28l-20.56,42,44.83,21.26v49.66h96.39l3.94-43.84,33.66,18.56Z"/></clipPath><clipPath id="clip-path-2"><path class="cls-1" d="M742.84,337.25l6,130.91H620.36l8.16-139.31,37.58-26.22s6.71,5.77,18.52,3.63a200.43,200.43,0,0,1,23.59-2.68Z"/></clipPath><clipPath id="clip-path-3"><path class="cls-1" d="M380.4,428.33l-2,12.86s-27.28,41.45-15.75,76.13c.1,37.24,0,182.92,0,182.92l177.94-20.12L464.92,441.19l-2.55-12.86Z"/></clipPath></defs><title>inicio</title><rect class="cls-2" x="21.33" y="807.21" width="1073.59" height="1.8"/><path class="cls-3" d="M883.74,227.73c7.71-1.58,17.69-2,24.78,1.85a35.46,35.46,0,0,1,15,16.16c3,6.62,4.07,14.05,6.45,21,1.66,4.83,4.1,9.55,8,12.62,5.71,4.52,13.92,6.43,20.36,9.83,30.94,16.35,20.73,60.73-6.86,75.56-20.19,10.84-51.3,1.15-63.37-17.41-4.34-6.68-6.39-14.87-6.6-23-.12-4.33.18-9-2.09-12.62-4.5-7.17-14.74-9.4-21.28-13.95-4.74-3.3-9.61-8.39-8.64-14.32.75-4.66,4.87-7.83,6.64-12.16,1.52-3.72,1.19-7.95,1.51-12C858.94,242.66,868.87,230.79,883.74,227.73Z"/><path class="cls-4" d="M936.59,340.54s-7.11,56.12-7.11,60.33,5.78,24.55,5.78,24.55H843.65L847.5,393s-3-42.46-.25-48.61,4.65-18.76,4.65-18.76l-4.74-14.48"/><path class="cls-3" d="M876.84,404.87a26.27,26.27,0,0,1,.23,2.66c0,.43,0,.87,0,1.3,0,.22,0,.44,0,.66a2.35,2.35,0,0,0,0,.65c0,.14.27.2.34.05a2,2,0,0,0,.11-.6c0-.23,0-.47.06-.7,0-.46,0-.91,0-1.36a16.52,16.52,0,0,0-.38-2.71c0-.2-.39-.16-.37.05Z"/><path class="cls-4" d="M878.37,294.82s-22.66,2.44-26.61,2.27-34.81-8.42-46.6-19.59-43.47-63.7-43.47-63.7L730.6,232s18.44,36,38.5,65.47c5.72,8.4,15.17,21.54,44.45,35,11.69,5.38,39.34,18.4,39.34,18.4"/><path class="cls-5" d="M878.11,293.09s-19.53-2.53-31.19-2c-9.48.44-30.71-7.28-30.71-7.28l-20.56,42,56.92,27s23.28-41.39,22.41-47.12S878.11,293.09,878.11,293.09Z"/><path class="cls-5" d="M904.64,295.29s18,1.27,21.18,1.23c6.13-.06,21.91,2.07,32.95,9.48,16.54,11.09,36.66,28.77,36.66,28.77l-21,36.66-51.82-28.58"/><path class="cls-5" d="M875.25,296.77c-17.47,4.48-34.77,28.2-34.77,44.86,0,14.22,0,55.08,0,55.08h96.39l5.42-60.39S921,314,904.64,295.29C895,306.3,875.47,301.25,875.25,296.77Z"/><g class="cls-6"><circle class="cls-7" cx="789.4" cy="287.79" r="2.46"/><circle class="cls-7" cx="810.87" cy="287.79" r="2.46"/><path class="cls-7" d="M834.8,287.79a2.46,2.46,0,1,1-2.46-2.46A2.46,2.46,0,0,1,834.8,287.79Z"/><path class="cls-7" d="M856.28,287.79a2.47,2.47,0,1,1-2.47-2.46A2.47,2.47,0,0,1,856.28,287.79Z"/><circle class="cls-7" cx="875.28" cy="287.79" r="2.46"/><circle class="cls-7" cx="896.76" cy="287.79" r="2.46"/><circle class="cls-7" cx="918.23" cy="287.79" r="2.46"/><circle class="cls-7" cx="939.7" cy="287.79" r="2.46"/><circle class="cls-7" cx="961.17" cy="287.79" r="2.46"/><path class="cls-7" d="M985.11,287.79a2.47,2.47,0,1,1-2.47-2.46A2.47,2.47,0,0,1,985.11,287.79Z"/><circle class="cls-7" cx="800.13" cy="299.77" r="2.46"/><circle class="cls-7" cx="821.61" cy="299.77" r="2.46"/><circle class="cls-7" cx="843.08" cy="299.77" r="2.46"/><circle class="cls-7" cx="864.55" cy="299.77" r="2.46"/><circle class="cls-7" cx="886.02" cy="299.77" r="2.46"/><path class="cls-7" d="M910,299.77a2.47,2.47,0,1,1-2.47-2.47A2.47,2.47,0,0,1,910,299.77Z"/><path class="cls-7" d="M931.43,299.77A2.47,2.47,0,1,1,929,297.3,2.47,2.47,0,0,1,931.43,299.77Z"/><circle class="cls-7" cx="950.44" cy="299.77" r="2.46"/><circle class="cls-7" cx="971.91" cy="299.77" r="2.46"/><circle class="cls-7" cx="993.38" cy="299.77" r="2.46"/><circle class="cls-7" cx="789.4" cy="311.61" r="2.46"/><circle class="cls-7" cx="810.87" cy="311.61" r="2.46"/><path class="cls-7" d="M834.8,311.61a2.46,2.46,0,1,1-2.46-2.46A2.46,2.46,0,0,1,834.8,311.61Z"/><path class="cls-7" d="M856.28,311.61a2.47,2.47,0,1,1-2.47-2.46A2.47,2.47,0,0,1,856.28,311.61Z"/><circle class="cls-7" cx="875.28" cy="311.61" r="2.46"/><circle class="cls-7" cx="896.76" cy="311.61" r="2.46"/><circle class="cls-7" cx="918.23" cy="311.61" r="2.46"/><circle class="cls-7" cx="939.7" cy="311.61" r="2.46"/><circle class="cls-7" cx="961.17" cy="311.61" r="2.46"/><path class="cls-7" d="M985.11,311.61a2.47,2.47,0,1,1-2.47-2.46A2.47,2.47,0,0,1,985.11,311.61Z"/><circle class="cls-7" cx="800.13" cy="323.59" r="2.46"/><circle class="cls-7" cx="821.61" cy="323.59" r="2.46"/><circle class="cls-7" cx="843.08" cy="323.59" r="2.46"/><circle class="cls-7" cx="864.55" cy="323.59" r="2.46"/><circle class="cls-7" cx="886.02" cy="323.59" r="2.46"/><path class="cls-7" d="M910,323.59a2.47,2.47,0,1,1-2.47-2.46A2.47,2.47,0,0,1,910,323.59Z"/><path class="cls-7" d="M931.43,323.59a2.47,2.47,0,1,1-2.47-2.46A2.47,2.47,0,0,1,931.43,323.59Z"/><circle class="cls-7" cx="950.44" cy="323.59" r="2.46"/><circle class="cls-7" cx="971.91" cy="323.59" r="2.46"/><circle class="cls-7" cx="993.38" cy="323.59" r="2.46"/><circle class="cls-7" cx="789.4" cy="335.43" r="2.46"/><circle class="cls-7" cx="810.87" cy="335.43" r="2.46"/><path class="cls-7" d="M834.8,335.43a2.46,2.46,0,1,1-2.46-2.46A2.46,2.46,0,0,1,834.8,335.43Z"/><path class="cls-7" d="M856.28,335.43a2.47,2.47,0,1,1-2.47-2.46A2.47,2.47,0,0,1,856.28,335.43Z"/><circle class="cls-7" cx="875.28" cy="335.43" r="2.46"/><circle class="cls-7" cx="896.76" cy="335.43" r="2.46"/><circle class="cls-7" cx="918.23" cy="335.43" r="2.46"/><circle class="cls-7" cx="939.7" cy="335.43" r="2.46"/><circle class="cls-7" cx="961.17" cy="335.43" r="2.46"/><path class="cls-7" d="M985.11,335.43a2.47,2.47,0,1,1-2.47-2.46A2.47,2.47,0,0,1,985.11,335.43Z"/><circle class="cls-7" cx="800.13" cy="347.41" r="2.46"/><circle class="cls-7" cx="821.61" cy="347.41" r="2.46"/><circle class="cls-7" cx="843.08" cy="347.41" r="2.46"/><circle class="cls-7" cx="864.55" cy="347.41" r="2.46"/><circle class="cls-7" cx="886.02" cy="347.41" r="2.46"/><path class="cls-7" d="M910,347.41a2.47,2.47,0,1,1-2.47-2.46A2.47,2.47,0,0,1,910,347.41Z"/><path class="cls-7" d="M931.43,347.41A2.47,2.47,0,1,1,929,345,2.47,2.47,0,0,1,931.43,347.41Z"/><circle class="cls-7" cx="950.44" cy="347.41" r="2.46"/><circle class="cls-7" cx="971.91" cy="347.41" r="2.46"/><circle class="cls-7" cx="993.38" cy="347.41" r="2.46"/><circle class="cls-7" cx="789.4" cy="359.25" r="2.46"/><circle class="cls-7" cx="810.87" cy="359.25" r="2.46"/><path class="cls-7" d="M834.8,359.25a2.46,2.46,0,1,1-2.46-2.46A2.46,2.46,0,0,1,834.8,359.25Z"/><path class="cls-7" d="M856.28,359.25a2.47,2.47,0,1,1-2.47-2.46A2.47,2.47,0,0,1,856.28,359.25Z"/><circle class="cls-7" cx="875.28" cy="359.25" r="2.46"/><circle class="cls-7" cx="896.76" cy="359.25" r="2.46"/><circle class="cls-7" cx="918.23" cy="359.25" r="2.46"/><circle class="cls-7" cx="939.7" cy="359.25" r="2.46"/><circle class="cls-7" cx="961.17" cy="359.25" r="2.46"/><path class="cls-7" d="M985.11,359.25a2.47,2.47,0,1,1-2.47-2.46A2.47,2.47,0,0,1,985.11,359.25Z"/><circle class="cls-7" cx="800.13" cy="371.23" r="2.46"/><circle class="cls-7" cx="821.61" cy="371.23" r="2.46"/><circle class="cls-7" cx="843.08" cy="371.23" r="2.46"/><circle class="cls-7" cx="864.55" cy="371.23" r="2.46"/><circle class="cls-7" cx="886.02" cy="371.23" r="2.46"/><path class="cls-7" d="M910,371.23a2.47,2.47,0,1,1-2.47-2.46A2.47,2.47,0,0,1,910,371.23Z"/><path class="cls-7" d="M931.43,371.23a2.47,2.47,0,1,1-2.47-2.46A2.47,2.47,0,0,1,931.43,371.23Z"/><circle class="cls-7" cx="950.44" cy="371.23" r="2.46"/><circle class="cls-7" cx="971.91" cy="371.23" r="2.46"/><circle class="cls-7" cx="993.38" cy="371.23" r="2.46"/><path class="cls-7" d="M791.86,383.07a2.47,2.47,0,1,1-2.46-2.46A2.47,2.47,0,0,1,791.86,383.07Z"/><path class="cls-7" d="M813.33,383.07a2.46,2.46,0,1,1-2.46-2.46A2.47,2.47,0,0,1,813.33,383.07Z"/><path class="cls-7" d="M834.8,383.07a2.46,2.46,0,1,1-2.46-2.46A2.47,2.47,0,0,1,834.8,383.07Z"/><path class="cls-7" d="M856.28,383.07a2.47,2.47,0,1,1-2.47-2.46A2.48,2.48,0,0,1,856.28,383.07Z"/><path class="cls-7" d="M877.75,383.07a2.47,2.47,0,1,1-2.47-2.46A2.47,2.47,0,0,1,877.75,383.07Z"/><path class="cls-7" d="M899.22,383.07a2.47,2.47,0,1,1-2.46-2.46A2.47,2.47,0,0,1,899.22,383.07Z"/><path class="cls-7" d="M920.69,383.07a2.47,2.47,0,1,1-2.46-2.46A2.47,2.47,0,0,1,920.69,383.07Z"/><path class="cls-7" d="M942.16,383.07a2.46,2.46,0,1,1-2.46-2.46A2.47,2.47,0,0,1,942.16,383.07Z"/><path class="cls-7" d="M963.64,383.07a2.47,2.47,0,1,1-2.47-2.46A2.48,2.48,0,0,1,963.64,383.07Z"/><path class="cls-7" d="M985.11,383.07a2.47,2.47,0,1,1-2.47-2.46A2.48,2.48,0,0,1,985.11,383.07Z"/><circle class="cls-7" cx="800.13" cy="395.05" r="2.46"/><circle class="cls-7" cx="821.61" cy="395.05" r="2.46"/><circle class="cls-7" cx="843.08" cy="395.05" r="2.46"/><circle class="cls-7" cx="864.55" cy="395.05" r="2.46"/><circle class="cls-7" cx="886.02" cy="395.05" r="2.46"/><path class="cls-7" d="M910,395.05a2.47,2.47,0,1,1-2.47-2.46A2.47,2.47,0,0,1,910,395.05Z"/><path class="cls-7" d="M931.43,395.05a2.47,2.47,0,1,1-2.47-2.46A2.47,2.47,0,0,1,931.43,395.05Z"/><circle class="cls-7" cx="950.44" cy="395.05" r="2.46"/><circle class="cls-7" cx="971.91" cy="395.05" r="2.46"/><circle class="cls-7" cx="993.38" cy="395.05" r="2.46"/></g><path class="cls-4" d="M979.81,273.86c0-.11,11.39,68.3,11.39,68.3l-16.73,29.27s16.51,7.74,21,9.13c18.9,5.89,44.08.19,38.32-31.92-6.19-34.47-28.89-83.92-28.89-83.92"/><line class="cls-8" x1="991.2" y1="342.16" x2="992.27" y2="359.2"/><line class="cls-8" x1="940.81" y1="352.87" x2="925.3" y2="344.9"/><path class="cls-8" d="M840.48,347.35s-1.38-18.66,3.17-28.63"/><path class="cls-8" d="M876.59,309.25c4.23,4.32,17.42,7.79,28.29-1.06"/><path class="cls-8" d="M870.12,296.7a21.55,21.55,0,0,0,3.22,10"/><path class="cls-4" d="M772.38,232c-10.23-16.26-21-38.26-23.85-38.81-1.25-.23-2,.91-2,2.66-.11,3.85,3.84,9.06,1.62,9.66-1.33.35-9.16-14-13.94-19.49a1.77,1.77,0,0,0-3.16,1.52c1.9,6,9,19.32,9,19.32-.89.33-8.54-15.18-13.67-19.81-1.1-1-3.49-.05-3,1.56,2,6.33,10,22.68,10,22.68s-7.75-15.93-12.76-19.78c-.91-.71-3,.5-2.66,1.64,1.47,4.92,10.74,23.41,10.74,23.41s-7.5-13.13-10.91-16.54c-.92-.92-3,.9-2.79,2.11,2.12,9.74,26.5,48.09,26.5,48.09"/><path class="cls-3" d="M731.8,219.29a25.87,25.87,0,0,1,8.73,3,13.33,13.33,0,0,1,3.11,2.64,15.7,15.7,0,0,1,2.11,3.55c.07.15.28,0,.25-.11a8.39,8.39,0,0,0-1.88-3.51,13.35,13.35,0,0,0-3.15-2.75,22.56,22.56,0,0,0-9.1-3c-.16,0-.24.22-.07.26Z"/><path class="cls-3" d="M749.82,208.51a21.58,21.58,0,0,0,.93,7.4,17.45,17.45,0,0,0,3.34,6.49.16.16,0,0,0,.25-.19c-.6-1-1.25-2-1.78-3a22.63,22.63,0,0,1-1.43-3.49,22.38,22.38,0,0,1-1-7.18c0-.21-.31-.21-.32,0Z"/><path class="cls-9" d="M870,262.09c-3.51-2.8-7.59-2.58-9.24,2.07a9.43,9.43,0,0,0-.16,6.07,6.88,6.88,0,0,0,4.11,4.33,5.48,5.48,0,0,0,5.7-1.29"/><line class="cls-10" x1="860.2" y1="260.26" x2="866.91" y2="264.42"/><path class="cls-4" d="M902.8,273.61l1.84,21.68s3.55,10.69-13.46,13-15.93-11.55-15.93-11.55l-.91-16.47"/><path class="cls-11" d="M862.48,255.59a18.73,18.73,0,0,1,11.26-12.34,22.24,22.24,0,0,1,16.88.56,27.45,27.45,0,0,1,12.52,11.57c2,3.46,3.27,7.29,5.38,10.68a5.88,5.88,0,0,0,.69-3.27c.1-10.41-1.79-22.4-11.1-28.64-7.62-5.1-18.77-6-26.87-1.42s-11.15,14.23-8.76,22.86"/><path class="cls-4" d="M865.05,251.08c.94-3,2.06-6,4.33-8.15a17.28,17.28,0,0,1,4.91-3c4.46-2,9.55-3.44,14.16-1.86,3.34,1.14,6,3.74,8.28,6.41,3.07,3.56,5.9,7.55,6.85,12.15.92,4.43.72,10,.26,14.45a20.41,20.41,0,0,1-4.51,11.17c-5.75,6.5-21,9.06-27.32,3.32a21.81,21.81,0,0,1-7.4-14.55,105.69,105.69,0,0,1-.45-13.75"/><path class="cls-3" d="M875.87,245.78c4.86,4.3,9.2,9.19,14.29,13.21s11.16,7.23,17.65,7.36c0,0-1.35-9-1.55-9.93-1.39-6.18-4.21-12.41-9-16.73a21.26,21.26,0,0,0-9.49-4.83c-8.71-2-19.29,1.81-23.55,9.94a20.25,20.25,0,0,0-2.48,8,12.08,12.08,0,0,0,2.18,8c-.92-1.22,0-4.81.43-6.09a16.67,16.67,0,0,1,3.13-5.16C869.48,247,872.39,244.32,875.87,245.78Z"/><path class="cls-3" d="M886.85,264.3a2,2,0,1,0,2.4-1.56A2,2,0,0,0,886.85,264.3Z"/><path class="cls-3" d="M865.59,264.25a2,2,0,1,0,2.44-1.5A2,2,0,0,0,865.59,264.25Z"/><path class="cls-3" d="M877.27,267.76a26.22,26.22,0,0,0-1.75,2.68,6.35,6.35,0,0,0-.81,2.33,1,1,0,0,0,.19.8,1.55,1.55,0,0,0,.7.28,15.14,15.14,0,0,0,2,.26c.22,0,.25-.32,0-.38a12.82,12.82,0,0,0-1.74-.26,1.77,1.77,0,0,1-.69-.19c-.2-.16-.11-.64-.07-.86a8.33,8.33,0,0,1,.83-2.16c.42-.83.89-1.65,1.37-2.45,0-.06-.05-.11-.09-.05Z"/><path class="cls-12" d="M883.74,277.9a14.47,14.47,0,0,1-.47,3.43c-.93,3.11-4.53,3.86-6.34,1.28a9.3,9.3,0,0,1-1.11-4.51Z"/><path class="cls-13" d="M894.09,260.86c-1.64-2.88-5.6-3.81-7.94-2"/><path class="cls-13" d="M871.07,259.08c-1.13-2.2-4-3-5.75-1.6"/><circle class="cls-10" cx="891.39" cy="263.63" r="9.71"/><path class="cls-8" d="M874.78,288.17a20.77,20.77,0,0,0,24.05-5.54"/><line class="cls-10" x1="901.1" y1="263.63" x2="907.81" y2="267.79"/><path class="cls-4" d="M903.33,266.05c3.93-1.65,7.62-.51,7.95,4a8.42,8.42,0,0,1-1.38,5.38,6.73,6.73,0,0,1-4.87,2.86,5.19,5.19,0,0,1-4.9-2.45"/><path class="cls-3" d="M903.73,272.79a17.58,17.58,0,0,1,.67-2,2.84,2.84,0,0,1,1.18-1.44,2.38,2.38,0,0,1,1.71-.28,2.62,2.62,0,0,1,.83.35c.24.15.41.37.65.53.05,0,.15,0,.12-.09a2.14,2.14,0,0,0-1.46-1,2.69,2.69,0,0,0-1.79.21,2.73,2.73,0,0,0-1.28,1.42,15.09,15.09,0,0,0-.72,2.25,0,0,0,1,0,.09,0Z"/><path class="cls-10" d="M874.78,262.69c0,5-3.38,9-7.54,9s-7.53-4-7.53-9,3.37-9,7.53-9S874.78,257.73,874.78,262.69Z"/><path class="cls-10" d="M881.84,261.86a14.39,14.39,0,0,0-7.22-1"/><path class="cls-4" d="M891,785.79l22.7-18.56L875.65,618.61l53.25-5.85S958,774.39,957.83,791a7.89,7.89,0,0,1-7.45,7.8l-15.65-.47-10.09,5.14"/><path class="cls-3" d="M956.4,771.15c-5,1.2-10.76,3.66-14.71,6.93-3.13,2.58-5.43,6-8.4,8.8a21.63,21.63,0,0,1-12.87,5.91,16.35,16.35,0,0,1-13.08-4.87c-.94-1-1.73-2.17-2.69-3.18a13.14,13.14,0,0,0-9.16-4,1.22,1.22,0,0,0-.68.12,1.65,1.65,0,0,0-.51.79c-.69,1.42-2,1.53-3.24,2.22s-2.09,1.52-3.17,2.23a75.69,75.69,0,0,1-8.08,4.8c-3.9,1.89-11.64,4.1-14,8.07a9,9,0,0,0-1,4.49v4h57.14A20.18,20.18,0,0,0,931.4,805l13.05-7.91-.69,10.28h14.12S958.7,777.93,956.4,771.15Z"/><path class="cls-14" d="M912.76,766.53c10.85,4.55,28.24,5.69,43.64,3.83"/><path class="cls-4" d="M1080.13,680.11,1076.37,651,938.7,587.87l23.17-48.3s97.32,53.25,139.71,76.87c9.17,5.1,15.77,8.09,18.26,9.67a7.88,7.88,0,0,1,2.68,10.44l-8.67,13-1,11.29"/><path class="cls-3" d="M1102.26,616.86a38.67,38.67,0,0,0-1.9,16.14c.54,4,2.26,7.8,3,11.79a21.51,21.51,0,0,1-1.79,14,16.29,16.29,0,0,1-11,8.54c-1.36.26-2.76.32-4.12.6a13.2,13.2,0,0,0-8.26,5.65,1.27,1.27,0,0,0-.25.65,1.66,1.66,0,0,0,.39.84c.85,1.34.24,2.52.18,3.93s.19,2.58.22,3.87a75.44,75.44,0,0,1-.2,9.39c-.45,4.31-2.66,12.05-.55,16.17a9,9,0,0,0,3.28,3.23l3.36,2.1,30.2-48.52a20.11,20.11,0,0,0,3-9.3l.17-15.25,8.37,6,7.46-12S1109.22,618.48,1102.26,616.86Z"/><path class="cls-14" d="M1075.27,651.46c9.6-6.81,19.76-21,26.31-35"/><path class="cls-15" d="M842,420.11l-1.49,9.83s-2.17,20.48-2.11,35c0,11.45,4.37,91.49,8.88,133.88s15.17,147.83,15.17,147.83h96.72S922.26,575.79,920,562.92,897.3,420.11,897.3,420.11"/><path class="cls-8" d="M948.34,746.69s-33.28-170.9-35.55-183.77S891.9,420.11,891.9,420.11"/><path class="cls-15" d="M881.43,420.11C885,463.9,906.26,567.82,923.85,587.7,945.47,612.13,1036.58,686,1036.58,686l34.29-88.27L983,543.93a27.26,27.26,0,0,1-11.65-14.71l-13.77-41.74a28.67,28.67,0,0,1-1.44-8.27c-.22-9.13-2.33-32.55-17.43-49.27l-3.3-9.83"/><path class="cls-8" d="M1067.71,605.86l-90.88-55.68a27.26,27.26,0,0,1-11.65-14.71L951.4,493.73a28.65,28.65,0,0,1-1.43-8.26c-.22-9.14-3.55-38.81-18.64-55.53"/><path class="cls-8" d="M881.43,429.94c3,36.81,16.56,106.78,31.56,135.67,2.84,5.48,11,23.07,13.76,25.09"/><line class="cls-8" x1="840.48" y1="429.94" x2="938.7" y2="429.94"/><line class="cls-8" x1="865.64" y1="420.11" x2="865.64" y2="429.94"/><line class="cls-8" x1="848.05" y1="420.11" x2="847.37" y2="429.94"/><line class="cls-8" x1="896.55" y1="420.11" x2="897.18" y2="429.94"/><line class="cls-8" x1="920.19" y1="420.11" x2="922.02" y2="429.94"/><path class="cls-3" d="M870.61,422.54a1.15,1.15,0,1,1-2.3,0,1.15,1.15,0,1,1,2.3,0Z"/><path class="cls-3" d="M870.61,426.89a1.15,1.15,0,1,1-1.15-1.15A1.15,1.15,0,0,1,870.61,426.89Z"/><path class="cls-3" d="M892.9,422.54a1.15,1.15,0,1,1-1.15-1.15A1.15,1.15,0,0,1,892.9,422.54Z"/><path class="cls-3" d="M892.9,426.89a1.15,1.15,0,0,1-2.3,0,1.15,1.15,0,0,1,2.3,0Z"/><path class="cls-8" d="M870.61,429.94s5,32.52,8.35,34a58.56,58.56,0,0,1,7.47,4.26"/><path class="cls-8" d="M913.25,429.94s10.73,18,12.48,18.44,17.35,2,17.35,2"/><path class="cls-3" d="M918.89,447c1.36,2.06,2.83,4.27,5.12,5.38a11.38,11.38,0,0,0,4,.91,17.76,17.76,0,0,0,4.72,0c.17,0,.12-.27,0-.28-2.8-.2-5.9.24-8.51-1.06-2.17-1.08-3.66-3.17-5-5.11-.09-.14-.33,0-.23.14Z"/><polyline class="cls-8" points="838.77 451.42 852.1 446.96 857.29 429.94"/><path class="cls-3" d="M841.18,455.34a58.43,58.43,0,0,0,12.42-4.65c.09,0,0-.15-.07-.12a106.08,106.08,0,0,1-12.38,4.65c-.08,0,0,.15,0,.12Z"/><path class="cls-3" d="M945.38,599.66q17.18,7.55,34.68,14.28c3.35,1.28,6.7,2.56,10.1,3.7.24.07.32-.28.1-.37-5.8-2.3-11.67-4.41-17.49-6.68s-11.6-4.59-17.36-7q-4.95-2.07-9.88-4.2c-.17-.07-.32.18-.15.26Z"/><path class="cls-3" d="M859.92,624.53q2.43,13.49,5.46,26.85c.57,2.51,1.13,5,1.8,7.52a.22.22,0,0,0,.42-.11c-.94-4.45-2-8.86-3-13.3s-1.91-9-2.78-13.48q-.73-3.79-1.43-7.61c0-.31-.52-.18-.46.13Z"/><path class="cls-3" d="M866.55,637.21c2.74,5.91,5.41,11.85,8.34,17.67.06.12.23,0,.17-.1-2.64-5.95-5.54-11.79-8.38-17.65,0-.09-.17,0-.13.08Z"/><line class="cls-8" x1="861.25" y1="735.17" x2="956.66" y2="735.17"/><line class="cls-8" x1="1025.28" y1="676.76" x2="1059.39" y2="590.7"/><polyline class="cls-16" points="286.56 615.75 297.5 777.04 245.57 777.04 229.97 615.75"/><polygon class="cls-12" points="298.48 783.99 244.79 784.47 243.74 766.86 297.5 766.86 298.48 783.99"/><path class="cls-15" d="M244.44,779.81l-2.25,27.6h92.38v-6.22a6.69,6.69,0,0,0-3.66-6l-32.27-16.48Z"/><line class="cls-17" x1="242.7" y1="801.14" x2="334.57" y2="801.14"/><path class="cls-17" d="M244.17,783.19s17,1.33,23.92,17.95"/><path class="cls-17" d="M320,789.65s-6.48,5.23-6.73,11.49"/><polyline class="cls-17" points="296.37 783.47 302.8 779.81 301.92 786.49 308.1 783.15 308.1 789.14 311.75 784.65"/><path class="cls-17" d="M302.72,780.42a43.59,43.59,0,0,1-1.15-6.62c0-1.84.33-3.89,2-4.94a2,2,0,0,1,2-.22,2.49,2.49,0,0,1,.86,2.29,17.3,17.3,0,0,1-3,9.28"/><path class="cls-17" d="M303.18,780.35a16.93,16.93,0,0,1,5.43-4.21,19.53,19.53,0,0,1,3.63-1.74c4-1.28,7.05,5.15,1.46,5.64a63.39,63.39,0,0,1-11.85-.06"/><polyline class="cls-16" points="101.04 598.1 59.83 754.41 110.82 764.22 156.62 608.79"/><polygon class="cls-12" points="57.56 761.06 110.19 771.68 114.54 754.57 61.76 744.42 57.56 761.06"/><path class="cls-15" d="M111.41,767.16l-3,27.53L17.69,777.23l1.18-6.1A6.7,6.7,0,0,1,23.59,766l34.8-10.08Z"/><line class="cls-8" x1="109.09" y1="788.44" x2="18.88" y2="771.08"/><path class="cls-8" d="M111,770.53s-16.94-1.9-26.88,13.11"/><path class="cls-8" d="M35.36,762.55s5.37,6.36,4.44,12.56"/><polyline class="cls-17" points="59.73 760.94 54.1 756.14 53.71 762.87 48.27 758.42 47.14 764.3 44.4 759.2"/><path class="cls-8" d="M54.07,756.76a44.74,44.74,0,0,0,2.38-6.29c.39-1.8.4-3.89-1.05-5.24a2,2,0,0,0-1.93-.59c-.81.28-1.14,1.24-1.29,2.09a17.29,17.29,0,0,0,1.16,9.66"/><path class="cls-8" d="M53.63,756.59a17,17,0,0,0-4.54-5.15,19.74,19.74,0,0,0-3.23-2.4c-1.89-1-5.18-.25-5.29,2.26-.07,1.66,1.37,2.6,2.79,3A63.85,63.85,0,0,0,55,756.48"/><path class="cls-18" d="M139.29,448.49s-19.71,67-37.79,125.81C87.08,621.18,64.3,725.37,64.3,725.37L136.5,743s29-110.31,36.77-135.28c4.06-13,51.06-168.68,51.06-168.68"/><path class="cls-18" d="M263.28,434.63S285.38,535.17,290.05,591c2.16,25.85,10.49,155.48,10.49,155.48H224.33s-4.84-119.5-7.08-140.95-22.88-111.3-22.88-111.3c-1.13-2.67,0-46.69,0-46.69"/><line class="cls-8" x1="67.72" y1="709.95" x2="140.45" y2="727.98"/><path class="cls-8" d="M133.18,726.17S158.6,639,165.12,612.47c6.58-26.78,26.86-79.33,34.79-104.82"/><path class="cls-8" d="M133.18,469s16.8,2.46,19.26,0,11.67-16.7,11.67-16.7"/><path class="cls-8" d="M244.86,457.88s3.93,17.66,6.65,20.13,21.57,4.38,21.57,4.38"/><line class="cls-8" x1="223.73" y1="731.92" x2="299.6" y2="731.92"/><path class="cls-8" d="M231.41,731.92s-5.2-96-9.92-131.22c-5-37.56-21.58-93.05-21.58-93.05"/><path class="cls-8" d="M199.88,510.32c-.64-3.59-.77-24.66,1.94-49.9"/><path class="cls-8" d="M192.27,455.76s-1.34,32,1,35.84c1.12,1.85,6.64,5,6.64,5"/><path class="cls-3" d="M99.26,599.47q0,7.13,0,14.25c0,4.75-.1,9.51,0,14.26,0,.14.23.15.23,0,.12-4.75,0-9.51,0-14.26s0-9.5,0-14.25a.09.09,0,0,0-.17,0Z"/><path class="cls-3" d="M106.75,605.26v4.45c0,1.48-.06,3,0,4.46a.15.15,0,0,0,.3,0c.1-1.48,0-3,0-4.46l0-4.45a.17.17,0,1,0-.34,0Z"/><path class="cls-3" d="M285.88,607c-1.72,8.75-3.51,17.48-5,26.27,0,.14.19.21.22.06,1.85-8.72,3.4-17.5,5-26.26,0-.15-.2-.22-.23-.07Z"/><path class="cls-3" d="M275.74,609.27c-.19,3.86-.39,7.72-.51,11.58a.1.1,0,0,0,.19,0c.23-3.86.38-7.72.55-11.58,0-.15-.23-.15-.23,0Z"/><path class="cls-3" d="M244.62,472.86a21.16,21.16,0,0,0,6.47,9.05,9.23,9.23,0,0,0,5,2c1.1.12,2.2.18,3.3.26a25.06,25.06,0,0,0,3.46.17c.18,0,.23-.28.05-.32a43.24,43.24,0,0,0-6-.5,11.66,11.66,0,0,1-3.06-.5,8.87,8.87,0,0,1-2.58-1.49,21.49,21.49,0,0,1-6.56-8.75c0-.06-.13,0-.1,0Z"/><path class="cls-3" d="M161.85,464.51c-.81.95-1.62,1.91-2.45,2.85l-1.22,1.36a12.57,12.57,0,0,0-1.23,1.4c-.07.12.08.28.2.2a9.14,9.14,0,0,0,1.24-1.32c.43-.48.85-1,1.27-1.46.8-1,1.58-1.93,2.33-2.93.06-.08-.08-.18-.14-.1Z"/><path class="cls-16" d="M69.14,343.76C55.68,361.6,53,388.67,67.47,399.13c12.81,9.26,30,3.56,38.68-2.42,10-6.89,31.23-22.3,31.23-22.3l-13.75-39.05L97.09,352.74l-28-3.59"/><path class="cls-19" d="M42.79,364.81c-2.24,8.88-4.49,18.75,0,27.33a14.24,14.24,0,0,0,4.31,5.15c.35.24.73-.29.45-.58a23.76,23.76,0,0,1-3.6-4.58,21.87,21.87,0,0,1-2.18-5.57A34.39,34.39,0,0,1,41.66,373c.42-2.71,1-5.38,1.61-8.06.07-.31-.41-.44-.48-.13Z"/><path class="cls-19" d="M33.53,372.28a18.47,18.47,0,0,0-4.08,10,17.7,17.7,0,0,0,2,10.67c.3.49,1,.06.76-.45a20.52,20.52,0,0,1-1.8-10.12,19.27,19.27,0,0,1,3.7-9.6c.25-.34-.32-.78-.59-.45Z"/><path class="cls-16" d="M284.32,345.44a221,221,0,0,0,50.32-19.13c29.56-15.61,59.79-46.35,72.95-70.25l-21.19-37.2c-16.42,30.55-41.17,54.52-72.86,69.31-17.05,8-55.28,18.31-55.28,18.31"/><path class="cls-19" d="M439,203.63a31.75,31.75,0,0,1,.52,10.6,35,35,0,0,1-1,5.07,46.6,46.6,0,0,1-1.84,5c-.13.32.38.51.55.23a25,25,0,0,0,3.24-10.18,29.88,29.88,0,0,0-.91-10.85.27.27,0,0,0-.53.14Z"/><path class="cls-19" d="M449,208.64a30.28,30.28,0,0,1,.88,9.29,32.34,32.34,0,0,1-.63,4.49c-.32,1.52-.81,3-1.19,4.49-.07.26.31.44.44.19a21.12,21.12,0,0,0,2.11-9,30.75,30.75,0,0,0-1.15-9.54.24.24,0,0,0-.46.13Z"/><path class="cls-16" d="M372.11,241.06c12.07-14.73,20.44-37.44,23.28-38,1.25-.25,2,.89,2.06,2.64.14,3.84-2.08,10.13.14,10.7,1.33.34,9-14.11,13.75-19.63a1.77,1.77,0,0,1,3.17,1.5c-1.84,6-8.83,19.4-8.83,19.4.89.33,8.39-15.27,13.46-19.95,1.1-1,3.5-.08,3,1.54-1.94,6.35-9.76,22.77-9.76,22.77s7.59-16,12.56-19.9c.9-.71,3,.47,2.67,1.61-1.41,4.94-10.5,23.51-10.5,23.51s6.84-13.38,10.22-16.83c.91-.92,3.06.87,2.81,2.09-2,9.76-24.52,46.81-24.52,46.81"/><path class="cls-3" d="M414,229.74a22.42,22.42,0,0,0-9.06,3.13,13.18,13.18,0,0,0-3.06,2.71,8.22,8.22,0,0,0-1.91,3.6c0,.14.18.26.25.11a15.32,15.32,0,0,1,2.07-3.57,13.36,13.36,0,0,1,3.09-2.67A25.74,25.74,0,0,1,414,230c.17,0,.1-.28-.07-.26Z"/><path class="cls-3" d="M395.6,219.4a22.14,22.14,0,0,1-.92,7.19,21.75,21.75,0,0,1-1.34,3.41c-.53,1.09-1.2,2.09-1.8,3.14-.08.15.13.33.25.19a17.6,17.6,0,0,0,3.28-6.52,21.83,21.83,0,0,0,.85-7.41c0-.21-.33-.21-.32,0Z"/><path class="cls-15" d="M319.17,343.3,298.6,292.5s-23.65,3.78-37,8.16C243.73,306.51,233,313.75,233,313.75h0l-39.71-8.43a121.69,121.69,0,0,0-13.18-3.74c-10.76-2.27-28-.14-41.6,9.86-14.3,10.53-35.39,25.81-35.39,25.81l29.85,46.5,15.24-10-12.38,84.68,134.38,9.71s.63-65.43,1.09-86.75c.13-6,.13-12.92.07-19.78Z"/><rect class="cls-20" x="219.76" y="406.9" width="3.14" height="9.08" transform="translate(-234.77 310.25) rotate(-49.21)"/><rect class="cls-20" x="190.44" y="409.87" width="9.08" height="3.14" transform="translate(-158.51 124.49) rotate(-25.58)"/><rect class="cls-20" x="246.94" y="398.24" width="9.08" height="3.14" transform="translate(-147.96 147.74) rotate(-25.58)"/><rect class="cls-20" x="181.41" y="360.08" width="9.08" height="3.14" transform="translate(-137.9 115.71) rotate(-25.58)"/><rect class="cls-20" x="183.54" y="447.54" width="3.14" height="9.08" transform="translate(-285.37 320.58) rotate(-52.12)"/><rect class="cls-20" x="154.61" y="396.67" width="3.14" height="9.08" transform="translate(-220.4 192.52) rotate(-39.74)"/><rect class="cls-20" x="204.82" y="379.86" width="3.14" height="9.08" transform="translate(-198.04 220.71) rotate(-39.73)"/><rect class="cls-20" x="168.06" y="416.89" width="9.08" height="3.14" transform="matrix(0.55, -0.83, 0.83, 0.55, -271.42, 330.42)"/><rect class="cls-20" x="253.72" y="420.32" width="9.08" height="3.14" transform="translate(-236.05 403.28) rotate(-56.37)"/><rect class="cls-20" x="153.84" y="445.27" width="9.08" height="3.14" transform="translate(-21.63 8.27) rotate(-2.8)"/><rect class="cls-20" x="211.51" y="430.06" width="3.14" height="9.08" transform="translate(-206.69 193.62) rotate(-34.02)"/><rect class="cls-20" x="246.92" y="451.56" width="3.14" height="9.08" transform="matrix(0.52, -0.85, 0.85, 0.52, -270.27, 430.3)"/><path class="cls-20" d="M241.43,426.54a2,2,0,1,1-2-2A2,2,0,0,1,241.43,426.54Z"/><path class="cls-20" d="M258.42,441.39a2,2,0,1,1-2-2A2,2,0,0,1,258.42,441.39Z"/><path class="cls-20" d="M187.94,430.21a2,2,0,1,1-2-2A2,2,0,0,1,187.94,430.21Z"/><circle class="cls-20" cx="135.78" cy="356.27" r="1.99"/><path class="cls-20" d="M156.18,434.6a2,2,0,1,1-2-2A2,2,0,0,1,156.18,434.6Z"/><circle class="cls-20" cx="208.38" cy="454.07" r="1.99"/><path class="cls-20" d="M185.16,384.66a2,2,0,1,1-2-2A2,2,0,0,1,185.16,384.66Z"/><path class="cls-20" d="M231.22,386.65a2,2,0,1,1-2-2A2,2,0,0,1,231.22,386.65Z"/><rect class="cls-20" x="246.92" y="331.1" width="3.14" height="9.08" transform="translate(-167.97 304.55) rotate(-49.22)"/><rect class="cls-20" x="199.05" y="334.07" width="9.08" height="3.14" transform="translate(-124.95 120.78) rotate(-25.58)"/><rect class="cls-20" x="273.48" y="303.74" width="9.08" height="3.14" transform="translate(-104.57 149.94) rotate(-25.58)"/><rect class="cls-20" x="137.05" y="340.75" width="3.14" height="9.08" transform="translate(-188.71 168.38) rotate(-39.74)"/><rect class="cls-20" x="254.43" y="349.84" width="9.08" height="3.14" transform="translate(-169.29 266.88) rotate(-42.45)"/><rect class="cls-20" x="162" y="335.84" width="9.08" height="3.14" transform="translate(-206.63 289.23) rotate(-56.37)"/><rect class="cls-20" x="155.26" y="312.01" width="3.14" height="9.08" transform="translate(-194.01 275.22) rotate(-56.93)"/><rect class="cls-20" x="249.9" y="374.22" width="9.08" height="3.14" transform="translate(-199.37 379.55) rotate(-56.37)"/><rect class="cls-20" x="225.15" y="366.98" width="3.14" height="9.08" transform="translate(-169.06 190.44) rotate(-34.02)"/><rect class="cls-20" x="285.79" y="327.79" width="3.14" height="9.08" transform="translate(-151.07 360.59) rotate(-52.84)"/><path class="cls-20" d="M211.23,356.92a2,2,0,1,1-2-2A2,2,0,0,1,211.23,356.92Z"/><path class="cls-20" d="M284.78,345.44a2,2,0,1,1-2-2A2,2,0,0,1,284.78,345.44Z"/><path class="cls-20" d="M186,339a2,2,0,1,1-2-2A2,2,0,0,1,186,339Z"/><circle class="cls-20" cx="176.42" cy="311.18" r="1.99"/><path class="cls-20" d="M151.26,361.65a2,2,0,1,1-2-2A2,2,0,0,1,151.26,361.65Z"/><path class="cls-20" d="M140.61,327.82a2,2,0,1,1-2-2A2,2,0,0,1,140.61,327.82Z"/><path class="cls-20" d="M292.4,314.4a2,2,0,1,1-2-2A2,2,0,0,1,292.4,314.4Z"/><path class="cls-20" d="M265.37,315.9a2,2,0,1,1-2-2A2,2,0,0,1,265.37,315.9Z"/><path class="cls-20" d="M237,345.29a2,2,0,1,1-2-2A2,2,0,0,1,237,345.29Z"/><line class="cls-8" x1="141.27" y1="378.29" x2="111.04" y2="331.47"/><path class="cls-21" d="M244.54,277.1c3.85-2.31,7.87-1.56,8.88,3.27a9.36,9.36,0,0,1-.63,6,6.88,6.88,0,0,1-4.65,3.75,5.47,5.47,0,0,1-5.48-2"/><path class="cls-16" d="M247.69,255.32c-5.11-5.28-12.94-7.08-20.11-8.63a21.24,21.24,0,0,0-10.77.07c-4.66,1.44-8.36,5.15-10.71,9.41s-3.51,9.08-4.42,13.87c-.73,3.9-1.31,8-.18,11.79,1.45,4.86,5.63,8.32,8.41,12.29a19.11,19.11,0,0,0,9.22,6.59c6.63,2.53,16.54,3.7,22.3-1.45A24.6,24.6,0,0,0,249.89,283a117.23,117.23,0,0,0,.62-15.47"/><path class="cls-16" d="M200,281.35l-6.78,24s2.14,12.15,21.27,17.23c14.68,3.9,22.27-5.68,22.27-5.68L238,294.08"/><path class="cls-3" d="M250.55,274.31c.45-8.81-1.08-11.87-3.58-14.58.35.38-3.19,3.35-3.57,3.62a15.16,15.16,0,0,1-4.75,2.17c-5.27,1.42-11.46.16-16.11-2.56a28.94,28.94,0,0,1-4-2.81c-.83-.68-4.41-3.22-4.44-4.31.08,3.22.14,6.58-1.25,9.48-2,4.26-6.76,6.66-9.1,10.76-1.08,1.9-1.74,4.25-3.62,5.37-4.58-8.58-7.34-18.77-4.89-27.73a27.47,27.47,0,0,1,15.12-17.95c8.48-3.8,18.85-4.72,27.64-1.2,7.9,3.17,13.61,11.64,15.23,20C254.28,259.81,254.87,266.25,250.55,274.31Z"/><path class="cls-3" d="M225.07,273.79a2,2,0,1,1-1.48-2.46A2,2,0,0,1,225.07,273.79Z"/><path class="cls-3" d="M245.77,276.83a2,2,0,1,1-1.48-2.46A2,2,0,0,1,245.77,276.83Z"/><path class="cls-3" d="M237.33,276.8c.15,1.64.28,3.29.29,4.94a14.18,14.18,0,0,1-.36,3.84c-.11.4-.34,1.27-.77,1.46s-.94-.08-1.29-.18c-1-.31-2-.77-3-1a.2.2,0,0,0-.1.38,32.39,32.39,0,0,0,3.44,1.17,1.86,1.86,0,0,0,1.12,0c.39-.16.61-.69.76-1.06a10.56,10.56,0,0,0,.54-3.91,44.77,44.77,0,0,0-.52-5.65c0-.06-.12-.06-.11,0Z"/><path class="cls-12" d="M228.57,289.8a16,16,0,0,0-.44,3.54c.08,3.33,3.37,5,5.79,2.89a9.72,9.72,0,0,0,2.26-4.21Z"/><path class="cls-16" d="M208,272.14c-3.38-2.95-7.47-2.91-9.31,1.67a9.36,9.36,0,0,0-.44,6.06,6.87,6.87,0,0,0,3.92,4.5,5.47,5.47,0,0,0,5.75-1"/><path class="cls-3" d="M201.21,273.63a2.18,2.18,0,0,1,2.4-.38,4,4,0,0,1,1.56,1.72,3.86,3.86,0,0,1,.24,2.49,7.33,7.33,0,0,1-1.47,3.17c-.12.15.08.37.22.22a6.51,6.51,0,0,0,1.44-2.61,5.35,5.35,0,0,0,.2-2.6,4,4,0,0,0-2.49-2.85,2,2,0,0,0-2.15.79s0,.08.05.05Z"/><path class="cls-3" d="M200.51,283.83a3.31,3.31,0,0,0,1.34,1,4.83,4.83,0,0,0,1.63.41,4.25,4.25,0,0,0,3.17-.93c.09-.08,0-.23-.13-.17a5.42,5.42,0,0,1-3,.74,5,5,0,0,1-1.52-.36,10,10,0,0,1-1.33-.8c-.09-.06-.22.06-.16.15Z"/><path class="cls-13" d="M219,268.29c2.73-1.87,6.7-1,8,1.69"/><path class="cls-13" d="M241.85,272.06a4,4,0,0,1,5.84,1.22"/><path class="cls-8" d="M211.1,294.61c7,6,17,9.85,26.28,7.59"/><path class="cls-8" d="M193.24,305.32s2.14,12.15,21.27,17.23c14.68,3.9,22.27-5.68,22.27-5.68"/><path class="cls-8" d="M239.89,323.53a14.94,14.94,0,0,0,3-9.13"/><path class="cls-8" d="M192.27,317.4c10.2,12.4,30.31,18.13,43.91,9.55"/><line class="cls-8" x1="148.42" y1="373.62" x2="158.34" y2="367.14"/><line class="cls-8" x1="271.32" y1="361.65" x2="271.32" y2="341.31"/><line class="cls-8" x1="288.97" y1="294.19" x2="309.48" y2="347.02"/><path class="cls-2" d="M139.32,224.05c55.67-15.71,200.77-43,418.81-43s363.13,27.31,418.81,43l24.12-139.44C967,72.88,817.89,34.12,558.13,34.12S149.24,72.88,115.19,84.61Z"/><path class="cls-12" d="M167.11,99.22q14-2.43,28-4.7c12-2,21.31-1.72,27.94.58s10.53,7.51,11.71,15.61a23.79,23.79,0,0,1-.32,9.08,16.69,16.69,0,0,1-3.69,7.17,15.85,15.85,0,0,1-6.9,4.41l.09.59a24.75,24.75,0,0,1,8.44,1.83A15.65,15.65,0,0,1,239,139.2q2.73,3.78,3.71,10.57a23.28,23.28,0,0,1-1.93,14A24.8,24.8,0,0,1,231,174a45.58,45.58,0,0,1-16.54,5.62q-16.2,2.58-32.38,5.41Q174.59,142.12,167.11,99.22ZM191.82,130l10.91-1.78c5.46-.88,9.11-2.3,11-4.3s2.52-4.62,2-7.88-2.13-5.47-4.86-6.51-6.81-1.13-12.23-.26c-3.32.54-6.64,1.08-10,1.64Q190.24,120.45,191.82,130Zm2.4,14.46,3.72,22.39q6-1,12-2c5.57-.89,9.28-2.55,11.15-5a11.5,11.5,0,0,0,2-9.05,10.74,10.74,0,0,0-2.3-5.37,9.54,9.54,0,0,0-5.43-3,26.06,26.06,0,0,0-9.59.13Q200,143.5,194.22,144.46Z"/><path class="cls-12" d="M259.41,172.91q-6-43.14-12-86.27,9.56-1.32,19.13-2.58,5.64,43.18,11.27,86.37Q268.61,171.63,259.41,172.91Z"/><path class="cls-12" d="M345.59,162.63q-25.09,2.51-50.14,5.57L284.86,81.75q26-3.18,52.09-5.78l1.5,15q-16.36,1.64-32.71,3.5,1.08,9.49,2.17,19,15.07-1.72,30.18-3.24.75,7.52,1.51,15-15,1.52-30,3.22l2.55,22.31q15.94-1.81,31.91-3.41Q344.83,155,345.59,162.63Z"/><path class="cls-12" d="M436.92,155.39q-11.78.69-23.53,1.51-21.27-31.54-43.63-62.69l-.55.05c.39,2.71.78,5.45,1.14,8.21s.72,5.51,1.08,8.25.72,5.49,1.08,8.25L376,159.8q-8.26.7-16.52,1.48-4-43.35-8.11-86.71,12.12-1.14,24.23-2.14Q398,103.3,419.29,134.59l.42,0q-.37-4-.83-8c-.29-2.65-.57-5.29-.85-7.94s-.55-5.3-.81-8q-1.35-20.56-2.72-41.13,8.65-.57,17.31-1.08Q434.38,111.92,436.92,155.39Z"/><path class="cls-12" d="M521.45,64.91q-14.57,43.85-28,87.87-10.11.34-20.21.77-16.68-42.87-34.5-85.5,9.72-.54,19.43-1,9.77,25.49,19.16,51c.31.86.85,2.48,1.59,4.85s1.49,4.89,2.26,7.54a66.35,66.35,0,0,1,1.61,6.59c.17-1.76.53-4,1.05-6.66s1.06-5.24,1.59-7.66.94-4.09,1.19-5Q494.15,91.54,502,65.38,511.72,65.11,521.45,64.91Z"/><path class="cls-12" d="M580.3,151.55q-25.18-.13-50.37.31-.75-43.55-1.51-87.08,26.16-.47,52.33-.32,0,7.56-.08,15.13-16.42-.09-32.85.06L548,98.77q15.15-.13,30.31-.07l-.06,15.13q-15.06-.06-30.11.07.09,11.23.2,22.46,16-.13,32-.06Q580.35,143.92,580.3,151.55Z"/><path class="cls-12" d="M671.83,153.88q-11.77-.54-23.56-1-17.85-33.6-36.82-66.9h-.56c.11,2.75.21,5.51.28,8.29s.15,5.56.21,8.32.15,5.53.22,8.31q-.39,20.49-.77,41-8.28-.15-16.57-.25.5-43.54,1-87.08,12.15.14,24.3.4,19,33,36.93,66.37h.42c0-2.7,0-5.38,0-8.05s0-5.32,0-8,0-5.33,0-8q.78-20.59,1.58-41.19,8.65.33,17.33.72Z"/><path class="cls-12" d="M689.54,154.76q2.34-43.48,4.67-87,9.63.51,19.24,1.11-2.7,43.47-5.39,86.93Q698.81,155.26,689.54,154.76Z"/><path class="cls-12" d="M802.65,119.08c-1,9.76-3.75,17.71-8.19,23.87a36.45,36.45,0,0,1-17.81,13.19q-11.16,4-26.17,2.72-12.36-1-24.72-1.86,3-43.44,6.07-86.88,14.24,1,28.47,2.16t24.27,7a35.85,35.85,0,0,1,14.76,15.84Q804.1,105.16,802.65,119.08ZM783,117.63q.9-9.6-1.43-16.07a19.15,19.15,0,0,0-7.75-10A30,30,0,0,0,760,87.44l-10.16-.82q-2.21,28.27-4.42,56.54l8,.64c9.09.74,16-1,20.92-5.43S782.14,127.09,783,117.63Z"/><path class="cls-12" d="M897.07,131.46a62.14,62.14,0,0,1-5.15,17.76,39.4,39.4,0,0,1-9.62,13,34.07,34.07,0,0,1-14.14,7.29,57.09,57.09,0,0,1-36.91-4.64,34,34,0,0,1-11.89-10.56,39.42,39.42,0,0,1-6.1-15,62.8,62.8,0,0,1-.57-18.58q1.44-13.44,7.07-22.93a33.46,33.46,0,0,1,15.86-13.9q10.2-4.41,25-2.57c9.8,1.23,17.63,4.14,23.44,8.66A33.63,33.63,0,0,1,895.9,107.4Q899,118,897.07,131.46ZM832.41,123a47.14,47.14,0,0,0,.51,15.87A20.52,20.52,0,0,0,839,149.82q4.49,4.11,12.27,5.08T864.51,153A20.07,20.07,0,0,0,873,144a48.42,48.42,0,0,0,4.37-15.25c1.23-9.06.46-16.41-2.36-22.08s-8.26-9-16.33-10c-5.36-.67-9.88,0-13.53,1.91a20.08,20.08,0,0,0-8.6,9.18A46.41,46.41,0,0,0,832.41,123Z"/><path class="cls-12" d="M959.83,161.19a23.84,23.84,0,0,1-6.06,12.62,24.61,24.61,0,0,1-12.37,6.83q-7.65,1.86-17.83.22a69.42,69.42,0,0,1-8.71-2,59.75,59.75,0,0,1-8-3,51.23,51.23,0,0,1-7.09-4l2.52-17q5.82,3.63,12.18,6.84A43.84,43.84,0,0,0,927.4,166a19.33,19.33,0,0,0,7.5,0,8.44,8.44,0,0,0,4.56-2.57,9,9,0,0,0,2-4.49,7.76,7.76,0,0,0-1.31-5.9,23.18,23.18,0,0,0-5.39-5.28c-2.37-1.76-5-3.66-8.07-5.7q-2.85-1.9-6.15-4.5a39.63,39.63,0,0,1-6.13-6,24.27,24.27,0,0,1-4.28-8,22.78,22.78,0,0,1-.59-10.42A22.15,22.15,0,0,1,927,93.76a40.9,40.9,0,0,1,16.69-.34,55.66,55.66,0,0,1,13.12,3.77A85.17,85.17,0,0,1,969.37,104q-4.29,6.54-8.56,13.09a103.72,103.72,0,0,0-10.41-5.6,37.77,37.77,0,0,0-9.75-3,15.3,15.3,0,0,0-6.23.12,8.35,8.35,0,0,0-4.27,2.45,8.15,8.15,0,0,0-2,4.36,7.55,7.55,0,0,0,1,5.44,19.81,19.81,0,0,0,4.95,4.92q3.42,2.53,8.57,6.05a72.19,72.19,0,0,1,10.49,8.42,24.74,24.74,0,0,1,6,9.2A22.88,22.88,0,0,1,959.83,161.19Z"/><path class="cls-22" d="M161.38,99.92q14-2.43,28-4.7c12-1.94,21.32-1.72,27.95.59s10.52,7.52,11.7,15.61a23.79,23.79,0,0,1-.32,9.08,16.49,16.49,0,0,1-3.69,7.16,15.82,15.82,0,0,1-6.9,4.41l.09.59a24.75,24.75,0,0,1,8.44,1.84,15.35,15.35,0,0,1,6.62,5.41q2.75,3.78,3.72,10.56a23.37,23.37,0,0,1-1.93,14,24.94,24.94,0,0,1-9.77,10.22,45.39,45.39,0,0,1-16.54,5.61q-16.22,2.58-32.39,5.41Q168.86,142.82,161.38,99.92Zm24.7,30.78L197,128.92q8.17-1.3,10.95-4.3t2-7.88c-.51-3.29-2.12-5.46-4.86-6.51s-6.81-1.13-12.23-.26l-10,1.64Q184.5,121.15,186.08,130.7Zm2.4,14.46q1.86,11.19,3.71,22.39,6-1,12.05-2c5.57-.9,9.28-2.56,11.15-5a11.51,11.51,0,0,0,2-9,10.84,10.84,0,0,0-2.31-5.37,9.55,9.55,0,0,0-5.43-3,26.23,26.23,0,0,0-9.58.13Q194.26,144.2,188.48,145.16Z"/><path class="cls-22" d="M253.67,173.61l-12-86.26q9.57-1.32,19.14-2.57,5.63,43.17,11.26,86.36Q262.88,172.34,253.67,173.61Z"/><path class="cls-22" d="M339.87,163.35q-25.1,2.49-50.15,5.56-5.28-43.23-10.57-86.45,26-3.18,52.08-5.78.76,7.53,1.51,15.06Q316.38,93.38,300,95.23l2.16,19q15.09-1.71,30.18-3.24.76,7.53,1.52,15.06-15,1.5-30,3.21l2.55,22.32q15.94-1.82,31.91-3.41Q339.11,155.76,339.87,163.35Z"/><path class="cls-22" d="M431.22,156.12q-11.78.69-23.54,1.5-21.27-31.54-43.63-62.69l-.55,0c.39,2.71.78,5.45,1.14,8.21s.72,5.51,1.08,8.25l1.08,8.25,3.51,40.83q-8.26.71-16.53,1.48l-8.1-86.71q12.12-1.14,24.23-2.14,22.38,30.87,43.68,62.16l.42,0c-.26-2.69-.53-5.36-.83-8s-.58-5.3-.86-8-.55-5.29-.8-7.94q-1.36-20.56-2.72-41.14,8.65-.57,17.31-1.08Q428.67,112.66,431.22,156.12Z"/><path class="cls-22" d="M515.76,65.63q-14.56,43.86-28,87.88-10.11.33-20.22.77Q450.9,111.4,433.09,68.77q9.71-.54,19.43-1,9.76,25.49,19.15,51,.48,1.29,1.59,4.86c.74,2.37,1.5,4.89,2.27,7.54a66.26,66.26,0,0,1,1.61,6.58q.25-2.62,1.05-6.65c.52-2.68,1.05-5.24,1.59-7.66s.93-4.1,1.19-5q7.47-26.2,15.34-52.35Q506,65.84,515.76,65.63Z"/><path class="cls-22" d="M574.62,152.27q-25.18-.12-50.37.31-.76-43.53-1.51-87.08,26.16-.45,52.33-.32,0,7.57-.08,15.13-16.43-.07-32.85.07.09,9.56.17,19.12,15.16-.14,30.32-.07l-.06,15.13q-15.06-.07-30.12.07.1,11.24.2,22.46,16-.15,32.05-.07Q574.67,144.66,574.62,152.27Z"/><path class="cls-22" d="M666.17,154.6q-11.79-.54-23.57-.95-17.85-33.6-36.83-66.9h-.55c.11,2.74.2,5.51.27,8.29s.15,5.55.22,8.31.14,5.54.21,8.32q-.37,20.49-.76,41-8.28-.16-16.57-.25.48-43.54,1-87.09,12.15.14,24.29.4,19,33,36.94,66.37l.43,0c0-2.7,0-5.39,0-8s0-5.33,0-8,0-5.32,0-8q.79-20.59,1.58-41.19,8.67.33,17.33.73Q668.16,111.1,666.17,154.6Z"/><path class="cls-22" d="M683.88,155.48q2.32-43.48,4.67-87,9.62.52,19.24,1.12-2.7,43.46-5.39,86.92Q693.15,156,683.88,155.48Z"/><path class="cls-22" d="M797,119.8q-1.5,14.64-8.18,23.87A36.48,36.48,0,0,1,771,156.86q-11.16,4-26.17,2.72-12.36-1-24.72-1.86l6.06-86.88q14.25,1,28.47,2.16t24.28,7a35.8,35.8,0,0,1,14.76,15.84Q798.45,105.86,797,119.8Zm-19.62-1.45q.9-9.6-1.43-16.07a19.16,19.16,0,0,0-7.76-10,29.89,29.89,0,0,0-13.8-4.17l-10.17-.82q-2.21,28.27-4.42,56.54l8,.64c9.09.74,16.05-1,20.92-5.43S776.49,127.8,777.38,118.35Z"/><path class="cls-22" d="M891.44,132.16a62.44,62.44,0,0,1-5.15,17.77,39.3,39.3,0,0,1-9.62,13,33.9,33.9,0,0,1-14.14,7.29,57.21,57.21,0,0,1-36.92-4.63A34,34,0,0,1,813.72,155a39.35,39.35,0,0,1-6.1-15,63.07,63.07,0,0,1-.58-18.57q1.44-13.45,7.08-22.94A33.49,33.49,0,0,1,830,84.61c6.8-2.93,15.15-3.81,25-2.57s17.63,4.14,23.44,8.66a33.6,33.6,0,0,1,11.84,17.4Q893.4,118.72,891.44,132.16Zm-64.68-8.4a47.32,47.32,0,0,0,.52,15.86,20.49,20.49,0,0,0,6.06,10.91c3,2.74,7.08,4.43,12.27,5.08s9.68,0,13.27-1.87a20.23,20.23,0,0,0,8.51-9.08,48.5,48.5,0,0,0,4.37-15.25c1.22-9,.45-16.41-2.37-22.08s-8.26-9-16.33-10q-8.05-1-13.54,1.91a20.28,20.28,0,0,0-8.6,9.18A46.82,46.82,0,0,0,826.76,123.76Z"/><path class="cls-22" d="M954.21,161.89a23.7,23.7,0,0,1-6.06,12.61,24.47,24.47,0,0,1-12.37,6.84q-7.65,1.86-17.83.23a70.4,70.4,0,0,1-8.71-2,59,59,0,0,1-8-3,50.15,50.15,0,0,1-7.08-4q1.25-8.47,2.51-17,5.84,3.63,12.18,6.84a44,44,0,0,0,12.91,4.26,19.33,19.33,0,0,0,7.5,0,8.48,8.48,0,0,0,4.56-2.57,9,9,0,0,0,2-4.49,7.73,7.73,0,0,0-1.3-5.89,23,23,0,0,0-5.39-5.29q-3.55-2.62-8.07-5.7c-1.9-1.26-4-2.76-6.16-4.49a39.26,39.26,0,0,1-6.13-6,24,24,0,0,1-4.28-8,22.78,22.78,0,0,1-.6-10.42,22.18,22.18,0,0,1,17.47-19.43,41.2,41.2,0,0,1,16.68-.34,55.6,55.6,0,0,1,13.13,3.77,85.76,85.76,0,0,1,12.53,6.77q-4.31,6.54-8.56,13.09a107,107,0,0,0-10.42-5.6,38.16,38.16,0,0,0-9.75-3,15.3,15.3,0,0,0-6.23.12,8.44,8.44,0,0,0-4.28,2.46,8.18,8.18,0,0,0-2,4.36,7.56,7.56,0,0,0,1,5.44,20.15,20.15,0,0,0,5,4.92c2.28,1.69,5.15,3.71,8.57,6a72.87,72.87,0,0,1,10.5,8.42,24.74,24.74,0,0,1,6,9.2A22.88,22.88,0,0,1,954.21,161.89Z"/><path class="cls-23" d="M169.46,401a2.69,2.69,0,0,1-2.65-2.24L112.55,81.21a2.7,2.7,0,0,1,5.32-.92l54.26,317.56a2.7,2.7,0,0,1-2.2,3.12A2.49,2.49,0,0,1,169.46,401Z"/><path class="cls-23" d="M946.79,401a2.38,2.38,0,0,1-.46,0,2.69,2.69,0,0,1-2.2-3.12L999.49,77.42a2.7,2.7,0,0,1,5.33.92L949.45,398.77A2.71,2.71,0,0,1,946.79,401Z"/><path class="cls-16" d="M134.53,316.09c-.42.82-28,59.5-28,59.5s-44-20.06-40-27.59,40.58-61.83,40.58-61.83"/><line class="cls-24" x1="115.7" y1="356.72" x2="104.17" y2="383.35"/><path class="cls-16" d="M97.2,300.93c6.94-10.78,13.78-22.94,25.13-29.64,9-5.3,13.54-8.3,24-9.69a8.5,8.5,0,0,1,6,1.13c1.89,1.16,3.22,3.83,1.74,5.49,3.67,1.34,3.38,6.18,1.17,7.74a3.57,3.57,0,0,1,3.58,2.41c.83,2.32.34,4.82-1,5.61,2.62,0,3.85,2.46,3.86,5.24s-.56,5.19-6.75,9c-.2-1.22-.65-3.71-.65-3.71l-15,11.56-11.69,24.83"/><path class="cls-3" d="M154.38,294.76c.44-.18.87-.37,1.31-.54l.64-.22c.22-.07.55-.1.67-.32a.2.2,0,0,0-.07-.26c-.22-.13-.51,0-.73.09s-.45.16-.66.26a6.36,6.36,0,0,0-1.29.68c-.14.1-.05.39.13.31Z"/><path class="cls-8" d="M148.42,287.34a58,58,0,0,1,8.93-3.3"/><path class="cls-8" d="M146.14,279.38a58,58,0,0,1,8.93-3.3"/><path class="cls-8" d="M144.76,271.29a56.94,56.94,0,0,1,9-3"/><path class="cls-4" d="M1023.57,311.55s-11-32.76-13.08-38.07c-4.23-11-7.62-14.87-15-22.63C989,243.89,981,238,972.4,235.69c-1.86-.5-1.73-.37-3.36.63s-2.79,3.31-1.51,4.75c-3.18,1.16-2.92,5.34-1,6.68a3.1,3.1,0,0,0-3.1,2.08c-.71,2-.29,4.17.89,4.86-2.27,0-3.33,2.13-3.34,4.52s.49,4.49,5.84,7.77c.17-1.06.55-3.21.55-3.21L981,280l4.13,25.45"/><path class="cls-3" d="M967.37,263.72a5.62,5.62,0,0,0-1.13-.61l-.59-.23c-.21-.07-.47-.19-.66,0a.17.17,0,0,0,0,.18c.08.23.37.26.57.33l.58.2c.38.14.76.3,1.15.46a.16.16,0,0,0,.19-.1.16.16,0,0,0-.06-.21Z"/><path class="cls-8" d="M972.4,259.2a18.45,18.45,0,0,0-7.72-4.46"/><path class="cls-8" d="M975.18,252.89a19.32,19.32,0,0,0-8.53-5"/><path class="cls-8" d="M976.87,245.93a22.23,22.23,0,0,0-9.1-4.84"/><path class="cls-19" d="M1016.28,260.28a29.7,29.7,0,0,0-3.92-10.16,24.81,24.81,0,0,0-7.35-7.74c-.29-.18-.61.24-.36.46a48.77,48.77,0,0,1,3.73,3.6,33.07,33.07,0,0,1,3.23,4.23,31.89,31.89,0,0,1,4.14,9.76c.08.34.59.19.53-.15Z"/><path class="cls-19" d="M1023,251.46a30.76,30.76,0,0,0-3.13-9.08,21.12,21.12,0,0,0-5.84-7.22c-.24-.18-.46.18-.3.38,1,1.16,2,2.25,3,3.45a31.91,31.91,0,0,1,2.58,3.85,30.75,30.75,0,0,1,3.24,8.75c.06.31.52.17.47-.13Z"/><polyline class="cls-4" points="774.67 615.75 818.54 777.04 766.62 777.04 718.08 615.75"/><polygon class="cls-12" points="819.97 780.07 766.93 780.42 763.59 767.16 815.64 766.86 819.97 780.07"/><path class="cls-25" d="M765.94,778.74l-2.35,28.67H856v-6.22a6.71,6.71,0,0,0-3.66-6l-32.27-16.48Z"/><line class="cls-26" x1="764.11" y1="801.14" x2="855.98" y2="801.14"/><path class="cls-26" d="M765.57,783.19s17,1.33,23.93,17.95"/><path class="cls-26" d="M841.41,789.65s-6.48,5.23-6.74,11.49"/><polyline class="cls-26" points="817.78 783.47 824.21 779.81 823.33 786.49 829.5 783.15 829.5 789.14 833.16 784.65"/><path class="cls-26" d="M824.13,780.42A43.59,43.59,0,0,1,823,773.8c-.05-1.84.33-3.89,2-4.94a2,2,0,0,1,2-.22,2.48,2.48,0,0,1,.87,2.29,17.3,17.3,0,0,1-3,9.28"/><path class="cls-27" d="M824.68,780.44a15.68,15.68,0,0,1,4.61-3.67c1.7-1,3.63-2.29,5.65-2.44a2.76,2.76,0,0,1,2.63,1.53c.62,1,1,2.33,0,3.22s-2.24.74-3.34.82-2.22.13-3.33.15a69.79,69.79,0,0,1-7.65-.31c-.3,0-.3.44,0,.47a58.57,58.57,0,0,0,8.27.27c1.35-.05,2.7-.12,4-.27a3.74,3.74,0,0,0,2.6-1.14,2.51,2.51,0,0,0,.16-2.64,4.53,4.53,0,0,0-1.84-2.23c-1.89-.94-4.37.54-6,1.45a18.83,18.83,0,0,0-6,4.63c-.09.12.12.29.22.16Z"/><polyline class="cls-4" points="629.77 615.75 634.5 777.04 686.42 777.04 686.37 615.75"/><polygon class="cls-12" points="634.09 780.07 686.8 780.42 686.42 767.16 634.2 766.86 634.09 780.07"/><path class="cls-25" d="M687.1,778.74l2.34,28.67H597.06v-6.22a6.69,6.69,0,0,1,3.66-6L633,778.74Z"/><line class="cls-26" x1="688.93" y1="801.14" x2="597.06" y2="801.14"/><path class="cls-26" d="M687.46,783.19s-17,1.33-23.92,17.95"/><path class="cls-26" d="M611.63,789.65s6.48,5.23,6.73,11.49"/><polyline class="cls-26" points="635.26 783.47 628.83 779.81 629.71 786.49 623.53 783.15 623.53 789.14 619.88 784.65"/><path class="cls-26" d="M628.91,780.42a43.59,43.59,0,0,0,1.15-6.62c0-1.84-.33-3.89-2-4.94a2,2,0,0,0-2-.22,2.47,2.47,0,0,0-.86,2.29,17.3,17.3,0,0,0,3,9.28"/><path class="cls-27" d="M628.57,780.28a16.55,16.55,0,0,0-5.18-4.14,26.15,26.15,0,0,0-3.11-1.61,5.4,5.4,0,0,0-3.13-.53,3.38,3.38,0,0,0-2.08,1.75,3.17,3.17,0,0,0-.51,2.8,2.83,2.83,0,0,0,2.05,1.52,20.86,20.86,0,0,0,3.78.36,59.94,59.94,0,0,0,9.38-.22c.3,0,.31-.5,0-.47-2.25.2-4.51.34-6.78.32-1.11,0-2.23,0-3.34-.11a11.69,11.69,0,0,1-3.44-.44,2,2,0,0,1-1.2-2.75,3.64,3.64,0,0,1,2.24-2.39,5.36,5.36,0,0,1,3.11.6,26.65,26.65,0,0,1,2.75,1.44,17.13,17.13,0,0,1,5.25,4c.09.12.31,0,.21-.16Z"/><path class="cls-11" d="M626.73,455.1s-4,91.2-4,141.87c0,71.7,6.91,161.64,6.91,161.64h67.82S693.79,658.06,693.79,644c0-17.73.64-92.75.64-92.75l45.44,204,73.55-1.56s-61.5-270.29-70.66-292.45"/><path class="cls-8" d="M733.09,457.88c2.56,3.41,71.22,296,71.22,296"/><path class="cls-8" d="M691.25,535.29s-5.15,107.23-4.87,122c.42,21.53,3.06,101.17,3.06,101.17"/><line class="cls-8" x1="694.43" y1="551.25" x2="677.49" y2="466.14"/><path class="cls-8" d="M667,462.46s6.06,32.56,8.08,35.59S685,503.7,685,503.7"/><path class="cls-8" d="M718,466.14c3,5.41,7.06,15.76,23.14,22.5"/><path class="cls-8" d="M711.94,465c3.42,7.93,14.61,24.77,30.18,27.57"/><path class="cls-8" d="M625.44,487.16c1.44-.72,12.54-15.11,16.58-24.7"/><path class="cls-8" d="M625.44,494c1.83-.85,16-17.72,21.1-29"/><path class="cls-3" d="M634.67,653.21c.43,8.6,1.24,17.18,2.35,25.72.31,2.37.6,4.75,1.05,7.1,0,.17.32.13.3,0-.46-4.23-1.16-8.45-1.66-12.68s-.92-8.57-1.28-12.86c-.21-2.41-.4-4.83-.57-7.24a.1.1,0,0,0-.19,0Z"/><path class="cls-3" d="M640,662.57c.8,2.93,1.52,5.91,2.5,8.79a.11.11,0,0,0,.22-.06c-.68-3-1.64-5.88-2.5-8.8a.12.12,0,0,0-.22.07Z"/><path class="cls-3" d="M766.06,626.27c.47,4.8.73,9.61.84,14.43.06,2.39.06,4.78,0,7.17s-.25,4.86-.19,7.28c0,.13.2.17.22,0a57.41,57.41,0,0,0,.33-7.19q0-3.59,0-7.17c-.14-4.86-.52-9.71-1.07-14.55,0-.07-.12-.07-.11,0Z"/><path class="cls-3" d="M759.56,636.07c.24,2.24.47,4.49.7,6.73s.39,4.36.76,6.51a.11.11,0,0,0,.21,0c-.11-2.2-.42-4.41-.68-6.6s-.51-4.41-.77-6.61c0-.14-.23-.14-.22,0Z"/><path class="cls-4" d="M599.37,320.7l-10.69,8.35,12.84-67-35.25-2.68s-20.64,83.86-21.94,90.74-1.58,20.82,15.46,29.2c5.94,2.92,20.66,3.64,31.55-3.73C614.79,359.65,635.77,346,635.77,346"/><path class="cls-4" d="M597.51,282.82c4.16-18.76,12-42,10.32-44.36-.72-1.05-2-.75-3.31.46-2.78,2.66-3.64,9.14-5.63,8-1.2-.68,3.33-16.42,3.78-23.67a1.76,1.76,0,0,0-3.31-1.13c-2.84,5.57-7.16,20.08-7.16,20.08-.87-.39,4.6-16.8,4.21-23.69-.08-1.49-2.45-2.5-3.22-1-3,5.91-8.85,23.15-8.85,23.15s5.69-16.77,4.84-23c-.15-1.14-2.48-1.75-3-.7-2.42,4.53-8.82,24.2-8.82,24.2s3.89-14.62,3.87-19.44c0-1.3-2.81-1.5-3.47-.46-5.35,8.42-15,52.83-15,52.83"/><path class="cls-3" d="M577.6,245.24a26.58,26.58,0,0,1,4,7.88,13.48,13.48,0,0,1,.47,4.24,14.75,14.75,0,0,1-1,4.19c-.05.16.17.23.25.11a8.46,8.46,0,0,0,1.15-4,13.6,13.6,0,0,0-.4-4.35,22.75,22.75,0,0,0-4.25-8.21c-.1-.13-.33,0-.23.13Z"/><path class="cls-3" d="M598,250.24a21.79,21.79,0,0,0-4.54,5.91,17.44,17.44,0,0,0-2.19,7,.16.16,0,0,0,.31,0c.29-1.13.5-2.28.86-3.4a23,23,0,0,1,1.44-3.48,22.49,22.49,0,0,1,4.35-5.81c.15-.14-.07-.37-.23-.23Z"/><line class="cls-8" x1="588.68" y1="329.05" x2="585.4" y2="349.05"/><path class="cls-28" d="M671.5,301s-9.62-1.88-20.07-3.15c-7.47-.9-17.77-.88-31.67,8-6.68,4.29-28.42,18.07-28.42,18.07l22,40.94,32.43-20"/><path class="cls-28" d="M742.84,337.25l6,130.91H620.36l8.16-139.31,37.58-26.22s6.71,5.77,18.52,3.63a200.43,200.43,0,0,1,23.59-2.68Z"/><g class="cls-29"><polygon class="cls-30" points="735.03 370.22 730.35 366.56 725.59 370.11 720.92 366.45 716.16 370 711.51 366.34 706.77 369.89 702.1 366.23 697.34 369.77 692.68 366.11 687.93 369.66 683.27 366 678.52 369.55 673.86 365.89 669.11 369.43 664.46 365.78 659.71 369.32 655.05 365.66 650.3 369.21 645.65 365.55 640.92 369.1 636.26 365.43 631.51 368.98 623.05 362.34 627.94 356.13 627.84 355.99 628.33 355.62 630.84 352.43 631.7 353.11 636.45 349.56 641.11 353.22 645.85 349.67 650.5 353.33 655.24 349.79 659.9 353.44 664.64 349.9 669.3 353.56 674.05 350.02 678.71 353.67 683.46 350.13 688.12 353.79 692.88 350.25 697.54 353.9 702.29 350.36 706.95 354.01 711.69 350.47 716.36 354.13 721.12 350.59 725.78 354.25 730.54 350.71 735.22 354.37 736.13 353.69 738.59 357 739 357.33 738.91 357.44 743.65 363.8 735.03 370.22"/><polygon class="cls-30" points="739.73 384.36 734.8 380.7 729.78 384.24 724.85 380.58 719.83 384.12 714.91 380.46 709.89 384 704.96 380.34 699.95 383.88 695.02 380.22 690.01 383.76 685.09 380.1 680.07 383.64 675.15 379.98 670.14 383.52 665.22 379.86 660.22 383.4 655.3 379.74 650.29 383.29 645.37 379.63 640.36 383.16 635.44 379.5 630.43 383.05 623.94 378.22 627.16 373.88 630.51 376.37 635.52 372.83 640.44 376.49 645.46 372.95 650.37 376.61 655.38 373.07 660.3 376.73 665.3 373.19 670.22 376.85 675.23 373.31 680.15 376.97 685.17 373.43 690.09 377.09 695.1 373.55 700.03 377.21 705.04 373.67 709.97 377.33 714.99 373.79 719.91 377.45 724.93 373.91 729.86 377.57 734.87 374.03 739.82 377.7 743.24 375.28 746.36 379.69 739.73 384.36"/></g><path class="cls-4" d="M784.86,370.53c-5.17-9-11.25-19.68-17.88-27.68l-33.89,21.32s20.29,25.45,19.28,40.41c-1.25,18.47-3.65,25.77-9.75,52.23-4.85,21-10,38.44-9.35,39.52s2,.84,3.33-.33c2.88-2.54,4-9,5.95-7.77,1.16.73-4,16.26-4.73,23.49a1.77,1.77,0,0,0,3.27,1.26c3.06-5.44,7.95-19.77,7.95-19.77.86.42-5.26,16.6-5.15,23.51,0,1.48,2.36,2.58,3.19,1.11,3.25-5.79,9.75-22.78,9.75-22.78s-6.35,16.53-5.75,22.82c.11,1.15,2.41,1.85,3,.83,2.6-4.44,9.78-23.83,9.78-23.83s-4.47,14.45-4.64,19.27c0,1.29,2.75,1.61,3.45.59,5.68-8.2,22.84-62,27.05-82.33C796.26,400.82,791.72,382.48,784.86,370.53Z"/><path class="cls-28" d="M701.05,303.55l31,1.1c7.86.28,15,3.56,19.16,7.65s27.52,38.42,27.52,38.42l-40.41,26.93-20.07-25.56"/><polyline class="cls-30" points="774.13 344.37 772.26 349.31 766.99 349.07 765.12 354.01 759.85 353.77 757.98 358.71 752.71 358.47 750.84 363.41 745.58 363.17 743.71 368.1 738.43 367.86 736.57 372.8 734.39 372.71 730.61 367.88 733.41 368.01 735.28 363.07 740.55 363.31 742.42 358.37 747.69 358.61 749.55 353.67 754.83 353.91 756.69 348.97 761.96 349.21 763.83 344.27 769.1 344.51 770.97 339.57"/><line class="cls-31" x1="718.21" y1="352.09" x2="738.28" y2="377.65"/><path class="cls-19" d="M569.94,217.51a6.56,6.56,0,0,0-2.13.89,11.65,11.65,0,0,0-4.09,4.36,13.74,13.74,0,0,0-1.68,4.93c0,.36.47.36.59.08.3-.75.52-1.53.83-2.28s.57-1.29.9-1.91a14.2,14.2,0,0,1,1.86-2.8,9.23,9.23,0,0,1,3.23-2.52,4.7,4.7,0,0,1,.63-.22c.35-.08.2-.59-.14-.53Z"/><path class="cls-19" d="M564.42,207.62a30.68,30.68,0,0,0-7.44,6,21.25,21.25,0,0,0-4.81,8,.25.25,0,0,0,.45.19c.75-1.32,1.41-2.68,2.21-4a32.34,32.34,0,0,1,2.73-3.75,30.35,30.35,0,0,1,7.11-6.06.24.24,0,0,0-.25-.42Z"/><path class="cls-31" d="M626.93,356.08s1.73-20.93,1.59-27.23"/><path class="cls-31" d="M669.1,317.69c4.94,4.58,21.08,8.86,35.28.7"/><path class="cls-31" d="M660.56,304.91c0,2,1.21,5.78,4.12,9.09"/><polygon class="cls-30" points="622.76 357.04 623.5 351.82 618.77 349.49 619.51 344.26 614.77 341.93 615.52 336.71 610.78 334.38 611.52 329.16 606.78 326.83 607.53 321.6 602.79 319.27 603.12 316.46 598.01 319.7 597.71 321.95 602.45 324.28 601.71 329.51 606.45 331.84 605.7 337.06 610.44 339.39 609.7 344.62 614.43 346.94 613.69 352.17 618.43 354.5 617.68 359.73 619.94 360.84 624.62 357.96 622.76 357.04"/><path class="cls-3" d="M669.81,234.64c-3.26,2.92-4.71,7.36-5.37,11.68-.7,4.64-.56,9.65,1.84,13.69.2.33.57.71.92.52a.78.78,0,0,0,.27-.3l12.71-20.7"/><path class="cls-9" d="M668.47,262.43c-3.15-3.2-7.23-3.47-9.42.95a9.34,9.34,0,0,0-.9,6,6.86,6.86,0,0,0,3.56,4.8,5.46,5.46,0,0,0,5.81-.59"/><path class="cls-4" d="M672.82,238c6.27-3.83,13.1,2.23,20.44,2.52a21.37,21.37,0,0,1,10.41,2.77c4.14,2.56,6.8,7.08,8,11.8s1.12,9.67.79,14.53c-.26,4-.72,8.06-2.77,11.45-2.63,4.35-7.54,6.65-11.23,9.8a19.17,19.17,0,0,1-10.57,4.07c-7.06.78-18.87-.73-23.16-7.16-3.78-5.66-3-11-2.17-17.75s7.95-32,7.95-32"/><path class="cls-4" d="M710.5,281l-1.18,25.25s-3.38,10.87-23.17,11C671,317.33,666,306.15,666,306.15l4.49-22.38"/><path class="cls-3" d="M671.66,245.12c1.76.31,3.54.55,5.29.8,7.27,1,14.61,2.26,21.32,5.22a3,3,0,0,1,1.18.77,3.05,3.05,0,0,1,.51,1.48q1.34,8.17,3.47,16.18,1.07,4,2.33,7.95c.1.31,2.5,6.53,2.79,6.2,3.81-4.13,7.72-9.24,10-14.39a28.47,28.47,0,0,0,2.58-13.26c-.24-3.26-2.19-6.08-3.08-9.18-.94-3.31-.17-7-1.67-10.21a12.31,12.31,0,0,0-3.25-3.87c-1.12-1-2.42-2-3.91-1.93s-3,1.65-2.25,3a36.59,36.59,0,0,0-8.91-9.93c-3.29-2.53-7.28-4.54-11.41-4.17-1.84.16-3.82,1-4.5,2.71-.83,2.11.67,4.38,2.14,6.12-4-4-9.63-6.62-15.3-6.23s-11.17,4-13.06,9.38a7.49,7.49,0,0,0,.11,6,8.12,8.12,0,0,0,2.51,2.61C662.35,243.1,667,244.32,671.66,245.12Z"/><path class="cls-3" d="M689.34,268.77a2,2,0,1,0,2.58-1.27A2,2,0,0,0,689.34,268.77Z"/><path class="cls-3" d="M669.07,262.42a2,2,0,1,0,2.61-1.2A2,2,0,0,0,669.07,262.42Z"/><path class="cls-3" d="M675.42,267.19a48.14,48.14,0,0,0-1.85,5,11.55,11.55,0,0,0-.54,4.2c.06.4.14,1,.5,1.27a2,2,0,0,0,1.12.24,33,33,0,0,0,3.57-.27.2.2,0,0,0,0-.39c-1.06,0-2.1.18-3.16.22a2.49,2.49,0,0,1-1.24-.12c-.42-.26-.42-1.24-.43-1.67a14.33,14.33,0,0,1,.66-3.94c.41-1.54.94-3,1.47-4.54,0-.06-.08-.09-.1,0Z"/><path class="cls-12" d="M680.75,282a15.4,15.4,0,0,1-.47,3.54c-.91,3.2-4.51,4-6.33,1.34a9.77,9.77,0,0,1-1.13-4.64Z"/><path class="cls-4" d="M703.08,271.65c4-2,8-.94,8.6,4a9.42,9.42,0,0,1-1.1,6,6.86,6.86,0,0,1-4.92,3.38,5.46,5.46,0,0,1-5.31-2.44"/><path class="cls-3" d="M709.34,274.75a2.25,2.25,0,0,0-.28-.53,2,2,0,0,0-.42-.39,2,2,0,0,0-.89-.36,2.91,2.91,0,0,0-1.87.51,4.66,4.66,0,0,0-1.4,1.36,4.48,4.48,0,0,0-.6,2.27,6.46,6.46,0,0,0,.74,3.43c.09.18.34,0,.26-.15a7.53,7.53,0,0,1-.64-2.8,5.09,5.09,0,0,1,.41-2.35,3.86,3.86,0,0,1,2.71-2,1.74,1.74,0,0,1,1,.2,3.43,3.43,0,0,1,.92.82s.08,0,.06,0Z"/><path class="cls-3" d="M707.29,284.66a9.39,9.39,0,0,1-1.46.43,4.71,4.71,0,0,1-1.59,0,5.37,5.37,0,0,1-2.73-1.46.1.1,0,0,0-.16.13,4.25,4.25,0,0,0,2.83,1.7,5.44,5.44,0,0,0,1.66,0,3.26,3.26,0,0,0,1.56-.61.11.11,0,0,0-.11-.18Z"/><path class="cls-13" d="M696.15,266.71c-1.28-3-5.1-4.46-7.64-2.91"/><path class="cls-13" d="M673.73,259.6a4,4,0,0,0-5.51-2.28"/><path class="cls-8" d="M696.45,291c-8.28,4.09-19,5.27-27.35.76"/><path class="cls-4" d="M422.27,777.62l-12.71-10.39s6.63-96,8.9-148.62c1.47-34,9.41-141.42,9.41-141.42l-58.52,11.48-4.13,124.09s.06,161.63.22,178.21a7.89,7.89,0,0,0,7.45,7.8l15.65-.47,10.09,5.14"/><path class="cls-3" d="M394.39,800.94l25.35-24.08s19.34,14.59,23.24,16.49,11.56,2.61,13.94,6.57c1.85,3.07,1.18,7.49,1.18,7.49H396.31L386,801.91l-6.37-.2-.09,5.7H365.39l-.17-9,23.32-.12Z"/><path class="cls-32" d="M458.49,803.44a9,9,0,0,0-1-4.49c-2.38-4-10.12-6.18-14-8.07s-23.72-16.54-23.72-16.54l-25.35,26.6,4.24,2.5Z"/><line class="cls-24" x1="398.63" y1="804.83" x2="424.38" y2="777.74"/><path class="cls-3" d="M379.34,800.51l3.38-1.22c-1.43-4-9.05-23.93-18.12-23.56l.15,3.6C369.49,779.13,376.13,791.6,379.34,800.51Z"/><path class="cls-4" d="M572.74,743l-15.63-5s-28.78-91.81-45.83-141.65c-11-32.24-42.75-135.13-42.75-135.13l-50.32,32,41.35,117.07s58.93,150.5,65.11,165.9a7.89,7.89,0,0,0,9.78,4.54l14.4-6.14,11.28,1.12"/><path class="cls-3" d="M555.27,774.89l14.84-31.65s23.32,6.54,27.64,6.89,11.72-1.79,15.39,1c2.83,2.19,3.81,6.54,3.81,6.54l-57.54,22.5-11.63-1.35-6,2.14,2,5.33-13.15,5.15-3.43-8.31,21.67-8.61Z"/><path class="cls-32" d="M615.88,753.87a9.2,9.2,0,0,0-2.58-3.81c-3.67-2.82-11.68-2.07-16-2.41s-28.11-6.76-28.11-6.76l-13.92,34,4.86.79Z"/><line class="cls-24" x1="560.63" y1="776.97" x2="574.74" y2="742.36"/><path class="cls-3" d="M541.09,780l2.71-2.36c-2.79-3.2-17.14-19-25.46-15.35l1.45,3.3C524.14,763.65,534.86,772.84,541.09,780Z"/><path class="cls-28" d="M380.4,428.33l-2,12.86s-27.28,41.45-15.75,76.13c.1,37.24,0,182.92,0,182.92l177.94-20.12L464.92,441.19l-2.55-12.86Z"/><g class="cls-33"><path class="cls-34" d="M342.37,634.21c21.2,8,34.82,28.11,49,45.79s33.19,35.17,55.82,34c3-.16,6.28-.83,8.07-3.23,3.15-4.23-.47-10.16-4.47-13.61-21.13-18.23-53.84-17.72-75-36-8.69-7.5-14.59-17.58-18.83-28.13-2-5-4.05-10.19-6-15.05a10,10,0,0,1,2.9-11.63c4-3.11,9.64-3.23,14.39-1.57,6.69,2.34,11.91,7.69,16,13.47,5.79,8.15,10,17.56,16.57,25.05a76,76,0,0,0,20.66,16.25c15.95,8.77,34.3,12.87,52.35,14,3.7.22,7.56.31,10.93-1.21s6.09-5.15,5.37-8.78c-.47-2.37-2.23-4.24-4-5.9a99.77,99.77,0,0,0-66-27.29c-10.6-.23-21.29,1.24-31.77-.4a40.45,40.45,0,0,1-12.1-3.81C374,625,369,624,367.77,621.62a10.49,10.49,0,0,1-.77-5.13,12.41,12.41,0,0,1,.83-4.89c1.33-2.9,4.51-4.43,7.54-5.44,13.24-4.44,28.23-2.06,41.63.82,21,4.5,41.59,9.81,63.13,10.84,6.58.32,13.29.26,19.58-1.67s12.2-6,15.11-11.87a10.35,10.35,0,0,0,1.17-6.47,11.24,11.24,0,0,0-2.11-4.32,27.22,27.22,0,0,0-13.18-9.61c-5.2-1.78-8.71-.43-13.82-.09-14.07.93-28.34.79-42.45,1.58-26.79,1.5-55.05,1.42-78.6-11.43-7.57-4.13-15.32-12-12.58-20.14,2.5-7.46,12-9.64,19.84-9.5,22.21.4,43.19,9.57,64.8,14.67a180.28,180.28,0,0,0,25.82,4.13c11.15.95,24.14,0,30.8-9,5.1-6.89,4.72-16.33,3.38-24.8-.42-2.66-1-5.46-2.79-7.47-2.62-2.9-7.22-3.25-10.89-1.89s-6.63,4.09-9.51,6.73q-19.56,17.94-40.25,34.58c-19.86,16-41.73,31-68.1,31.75-3.73.11-7.94-.31-10.33-3.18-1.75-2.1-2.07-5.05-1.86-7.77a25.51,25.51,0,0,1,9.95-18.25c5-3.79,11.33-5.61,16.28-9.49,6.54-5.12,10.17-13.41,17.09-18,5.65-3.75,12.74-4.52,19.53-4.68,12.13-.27,26.5,1.11,34.88,10.65,7.67,8.74,15,17.71,21.78,27.18,13.33,18.55,26.62,38.89,47.69,49.42,23.27,11.64,52.82,9.39,73.14,25.65-4.91,9.28-16.78,12.53-27.27,12.09-13.61-.57-26.57-5.64-39.38-10.29s-26.18-9-39.77-8-27.58,8.47-32.31,21.25c-5.3,14.31-1,36.32,13.8,43.18,10.13,4.7,22.15,3.28,32.6-.64a46,46,0,0,0,15.06-8.72c4.6-4.2,8.07-10.07,7.94-16.3-.13-6.61-4.27-12.56-9.32-16.84-12.81-10.86-30.45-9.86-46.29-11.39-10-1-20.26-1.48-29.74,1.73-8.19,2.78-15.2,8.15-22.26,13.15-11.06,7.85-22.88,15.09-36.05,18.35s-28,2.08-39-5.83C327.8,665.71,323,646,322.06,628c-.5-9.66-.14-19.63,3.63-28.53,4.22-10,12.28-17.69,18.87-26.27a102.25,102.25,0,0,0,15.13-27.77c3.47-9.7,6.09-20.8,14.64-26.54,8.24-5.54,19.14-4.1,28.91-2.34,26.1,4.73,52.7,10.33,78.94,6.42,3.4-.5,6.94-1.24,9.55-3.47,6.42-5.48,3.69-15.79.44-23.58a16.12,16.12,0,0,0-3.52-5.88c-5.16-4.76-13.35-1.13-19.42,2.4a251,251,0,0,1-87.42,30.87c-6.73,1-14.27,1.63-19.74-2.44a27.22,27.22,0,0,1-5.89-6.87c-5.73-8.42-11.74-18.42-8.75-28.17,20.46,2.19,38.64,13.79,55,26.31,7.6,5.83,13.68,10.47,18,19.33,1.06,2.21,2,4.54,3.72,6.29,3.13,3.18,8,3.66,12.47,3.82s9.41.16,13.54-1.89a17.21,17.21,0,0,0,8.78-11.8c1.29-6-.27-12.93-1.81-18.76-1.84-6.92-5.07-12.15-2.55-19.55.81-2.36,2.06-4.61,2.28-7.09.32-3.77-1.81-7.3-4.26-10.17-7.2-8.43-18.3-13.72-29.35-12.82s-21.56,8.46-24.9,19a39.32,39.32,0,0,1-2.06,6.24c-3.21,6.31-11.86,8.13-18.57,5.88-8.57-2.87-17.38-11.25-22-18.91a23.31,23.31,0,0,1-3-6.62c-2.27-9.71,7.15-19,17-20.38s19.59,2.87,28.55,7.24c12.53,6.12,24.85,12.72,37.82,17.84,14.16,5.58,31.1,9.08,43.95.9,5-3.17,9.16-9.41,6.69-14.78a15.87,15.87,0,0,0-4.28-5l-21.65-19.11c-3.85-3.39-7.82-6.86-12.63-8.65-8.63-3.2-18.21-.46-27,2.3-9.48,3-20.68,7.94-21.63,17.83-.53,5.43,2.41,10.52,5.24,15.18l13.52,22.26c3.07,5.06,7.32,10.77,13.23,10.42,5-.3,8.77-5.33,9.38-10.34,1.19-9.71-3.38-18.65-8.72-26.57-1.43-2.14-3-4.26-3.66-6.75-.88-3.43.18-7,1.31-10.39,1.79-5.32,4.08-10.92,8.79-14,4.09-2.65,9.38-2.85,14.11-1.65,7.77,2,14.23,7.05,20.84,11.33,6.77,4.38,13.3,9.53,17.62,16.46,7.68,12.3,7.15,27.82,6.36,42.3-.16,2.86-.35,5.85-1.85,8.29-1.82,3-5.2,4.54-8.38,5.95l-28,12.39c-4.35,1.92-8.78,3.9-12.26,7.14-5.56,5.18-7.94,12.86-9.71,20.25-2.82,11.74-4.39,25.12,2.53,35,8.1,11.59,24.51,13.59,38.55,11.89s28.26-6,42.07-3c5.26,1.16,11,4.34,11.54,9.7.48,4.91-3.66,8.91-7.44,12.08-10.08,8.48-21,17.34-34.15,18.62-9.27.9-18.47-2.16-27-5.92a163.72,163.72,0,0,1-36.74-22.8c-2.87-2.32-6.12-4.77-9.81-4.56-4,.23-7.27,3.74-8.52,7.58s-.93,8-.66,12,.46,8.22-1,12c-7.16,18.38-41.89,20-56.52,12.24-9.34-5-15.61-14.12-20.82-23.32a215.86,215.86,0,0,1-11.65-23.88c-2.1-5.08-4-10.84-2-15.94,3.19-8,13.59-9.52,22.16-9.63,3.64-.05,7.4,0,10.74,1.4,5.63,2.43,8.86,8.29,11.67,13.74,4.65,9,9.31,18.08,13.06,27.52,5.77,14.49,9.37,30.47,6,45.69a53,53,0,0,1-32.59,37.43c8,11.74,22.66,16.43,36,21.26a323,323,0,0,1,43.64,19.56c8.09,4.37,16.83,10.27,18.2,19.36"/><path class="cls-35" d="M362.55,455.2q8.08,9.15,16.26,18.23c4.55,5.07,9.08,10.18,14.05,14.84a68.21,68.21,0,0,0,15.56,11.39,40.82,40.82,0,0,0,19.16,4.61,45.81,45.81,0,0,0,20.31-5.19,33.63,33.63,0,0,0,13.38-12,19.94,19.94,0,0,0,2.09-16.89c-2-5.71-6.3-10.41-11.31-13.65-5.9-3.8-12.85-5.63-19.65-7s-14-2.43-20.76-4.69c-6.51-2.18-12.51-5.64-16.9-11-4-4.85-6.87-11.23-6.62-17.59a12.79,12.79,0,0,1,2.9-8.06c2.28-2.57,5.64-3.62,8.85-4.51,7.52-2.09,15.31-4.18,23.15-2.73a53.88,53.88,0,0,1,10.8,3.44c3.69,1.53,7.32,3.19,11,4.84,3.31,1.5,6.68,2.94,9.9,4.64a21.57,21.57,0,0,1,7,5.28,9.43,9.43,0,0,1,1.84,8.44,13.39,13.39,0,0,1-6.15,7.74,29.5,29.5,0,0,1-9.73,3.51,41.52,41.52,0,0,1-47.21-27.22c-.16-.49-.93-.28-.77.21a42.17,42.17,0,0,0,46.93,28c6.37-1,13.72-3.55,16.81-9.73a10.53,10.53,0,0,0,.46-8.81,14.68,14.68,0,0,0-5.49-6.12,57.65,57.65,0,0,0-8.71-4.55q-5.47-2.54-11-5c-6.95-3.07-14.09-6.12-21.83-6a53.09,53.09,0,0,0-11.68,1.8c-1.9.47-3.79,1-5.67,1.51a32.8,32.8,0,0,0-4.57,1.56,12,12,0,0,0-6.4,6.28,17,17,0,0,0-1,8.72,30.33,30.33,0,0,0,8.41,16.75c10.1,10.49,25.29,11.48,38.69,14.47,6.87,1.54,13.84,3.73,19.45,8.14,4.84,3.81,8.81,9.25,9.51,15.51s-2.06,12.15-6.22,16.66a39.08,39.08,0,0,1-16.72,10.29,42,42,0,0,1-22,1.33,47.63,47.63,0,0,1-17.53-8.35,110.52,110.52,0,0,1-14.75-13.53c-5.25-5.57-10.35-11.3-15.51-17-2.68-2.95-5.39-5.87-8.1-8.79-.11-.12-.27.05-.17.17Z"/><path class="cls-35" d="M348,495.59c8,3.13,15.95,7,22.52,12.68,5.93,5.13,10.75,11.84,12.68,19.51.94,3.73,1.44,8.21-.86,11.56a12.52,12.52,0,0,1-4.8,3.75c-1.71.89-3.45,1.71-5.15,2.62a88,88,0,0,0-18.5,12.8,52.07,52.07,0,0,0-12.84,17.73c-.36.85-.68,1.72-1,2.59-.17.46.57.66.73.2a49.65,49.65,0,0,1,12.54-18.91,85.11,85.11,0,0,1,18.84-13.43c1.68-.91,3.4-1.76,5.11-2.62a16.37,16.37,0,0,0,4.89-3.33c2.69-2.94,2.82-7.18,2.15-10.9-1.39-7.79-5.85-14.78-11.51-20.19-6.18-5.89-13.83-10-21.68-13.19-1-.42-2-.82-3-1.21-.21-.08-.3.26-.09.34Z"/><path class="cls-35" d="M350.48,555.83c12.41,5.55,24.89,11.12,38,14.8,12,3.37,24.53,5,36.95,3.53a66.26,66.26,0,0,0,17.09-4.3,57.2,57.2,0,0,0,15.3-9.3c5.22-4.39,10-9.26,15.41-13.42a100.81,100.81,0,0,1,16.7-10.58c6-3,12.55-5.17,19.3-5.2s13.08,2.5,19,5.67c1.43.77,2.85,1.57,4.27,2.37a.33.33,0,0,0,.33-.57c-5.51-3.26-11.35-6.41-17.7-7.63a36.07,36.07,0,0,0-18.79,1.9,78.79,78.79,0,0,0-17.25,9,127.07,127.07,0,0,0-15.47,12.37c-4.84,4.46-9.69,8.83-15.49,12a60.12,60.12,0,0,1-16.9,6.1c-12.24,2.54-24.9,1.71-37-1.05-13.47-3.07-26.28-8.4-38.9-13.92l-4.67-2c-.18-.08-.33.17-.15.25Z"/><path class="cls-35" d="M528.66,597.74c-7.38-1-14.75.51-21.83,2.58-7.41,2.17-14.77,4.59-22.1,7s-14.54,5-21.66,7.93c-6.22,2.53-12.41,5.38-17.73,9.54-10.16,7.94-14.95,20.22-17.77,32.42s-3.19,26.76-13.45,35.58c-10.5,9-25.18,9.61-37.62,14.39a48.61,48.61,0,0,0-4.73,2.1c-.46.24,0,.93.41.7,12.25-6,26.64-6.3,38.36-13.56a29.34,29.34,0,0,0,11.77-13.73c2.54-6,3.49-12.51,4.7-18.88,2.31-12.21,5.71-25.13,14.44-34.45,4.64-5,10.57-8.41,16.7-11.21,6.79-3.09,13.83-5.67,20.86-8.14,7.28-2.56,14.62-4.95,21.95-7.32,7.15-2.32,14.46-4.71,22-4.91a35.05,35.05,0,0,1,5.61.3c.22,0,.28-.36,0-.39Z"/><path class="cls-35" d="M465.84,697.41c3.19-6.87,8.87-12.26,15.36-16,7.52-4.37,16.06-6.59,24.55-8.17a163.3,163.3,0,0,1,24-2.78,104.27,104.27,0,0,1,23.73,1.64,70.53,70.53,0,0,1,21.9,8c.83.48,1.69.92,2.51,1.4.3.18.54-.26.27-.45-6.45-4.52-14.16-7.34-21.79-9.08a99.61,99.61,0,0,0-23.8-2.25,156.58,156.58,0,0,0-24,2.43c-8.71,1.52-17.5,3.52-25.4,7.61-6.62,3.42-12.63,8.41-16.39,14.92-.47.81-.9,1.65-1.3,2.5-.14.3.31.57.46.26Z"/><polygon class="cls-35" points="393.54 567.03 391.07 561.64 396.46 559.16 393.54 567.03"/><polygon class="cls-35" points="466.18 607.31 463.7 601.91 469.1 599.43 466.18 607.31"/><polygon class="cls-35" points="499.3 670.22 496.83 664.82 502.22 662.34 499.3 670.22"/><polygon class="cls-35" points="396.6 658.03 402.44 656.99 403.49 662.83 396.6 658.03"/><polygon class="cls-35" points="389 691.61 383.29 693.21 381.68 687.49 389 691.61"/><polygon class="cls-35" points="423.71 619.53 429.43 617.91 431.05 623.62 423.71 619.53"/><polygon class="cls-35" points="412.78 541.29 418.58 539.99 419.87 545.79 412.78 541.29"/><polygon class="cls-35" points="448.72 510.15 452.48 514.75 447.88 518.51 448.72 510.15"/><polygon class="cls-35" points="485.67 571.68 490.68 568.5 493.87 573.51 485.67 571.68"/><polygon class="cls-35" points="437.01 677.06 442.02 673.88 445.21 678.89 437.01 677.06"/><polygon class="cls-35" points="381.35 500.52 382.44 506.36 376.6 507.45 381.35 500.52"/><polygon class="cls-35" points="456.4 447.49 454.4 453.08 448.81 451.09 456.4 447.49"/><polygon class="cls-35" points="414.79 482.96 412.11 488.26 406.81 485.57 414.79 482.96"/><polygon class="cls-35" points="519.87 630.45 517.18 635.75 511.89 633.06 519.87 630.45"/></g><line class="cls-36" x1="378.44" y1="441.19" x2="464.92" y2="441.19"/><line class="cls-36" x1="415.09" y1="428.33" x2="415.09" y2="441.19"/><line class="cls-36" x1="388.18" y1="428.33" x2="387.17" y2="441.19"/><line class="cls-36" x1="444.47" y1="428.33" x2="445.21" y2="441.19"/><line class="cls-36" x1="458.63" y1="428.33" x2="460.33" y2="441.19"/><path class="cls-37" d="M441.11,432.47a1.3,1.3,0,1,1-1.3-1.3A1.3,1.3,0,0,1,441.11,432.47Z"/><path class="cls-37" d="M441.11,437.48a1.3,1.3,0,1,1-1.3-1.3A1.3,1.3,0,0,1,441.11,437.48Z"/><path class="cls-37" d="M420.79,432.47a1.3,1.3,0,1,1-1.3-1.3A1.3,1.3,0,0,1,420.79,432.47Z"/><path class="cls-37" d="M420.79,437.48a1.3,1.3,0,1,1-1.3-1.3A1.3,1.3,0,0,1,420.79,437.48Z"/><path class="cls-4" d="M365.63,468,367,481.2l1.47,7.64c7.2-7.64,19-33.86,19-33.86s-2.21-4.15-4.8-8.26"/><path class="cls-36" d="M392,441.19s-6.49,26.79-25,49.49"/><path class="cls-36" d="M456.49,441.19s9,32.92,19.83,36"/><path class="cls-37" d="M452,597.45q-7.08,10.62-13.27,21.78c-4.11,7.4-7.93,15-11.4,22.69-1.95,4.34-3.79,8.72-5.44,13.18-.06.17.22.29.29.12,3.31-7.79,6.66-15.55,10.39-23.15s7.76-15.06,12.09-22.34q3.66-6.15,7.59-12.14c.1-.15-.15-.29-.25-.14Z"/><path class="cls-37" d="M440.29,634.84A67.43,67.43,0,0,0,432.23,653a.19.19,0,0,0,.36.1,98.79,98.79,0,0,1,3.5-9.34,75.38,75.38,0,0,1,4.59-8.66c.16-.25-.24-.48-.39-.23Z"/><path class="cls-4" d="M414.79,318.24l-10.44-2.54s-23,.24-39.76,12.87c-21.95,16.5-49.42,47-44.88,83.54,3,24,47.29,69.09,47.29,69.09l15.66-34.48s-20.7-32.36-20.39-41c.46-12.85,23.27-29.81,23.27-29.81"/><path class="cls-4" d="M451.19,372.87s29.68,26.74,38.71,33.82c3.92,3.06,15.66,11.23,25.73,9.63,14.7-2.34,16.74-11.41,14.11-32.4l-17.87-6.16s-16.48-20.61-27-33.72c-13.07-16.26-21.28-23.77-28.84-24.14s-24.33-.69-24.33-.69"/><path class="cls-38" d="M404.35,315.7c-14.89,13.57-28.12,56.06-32.11,59.89l8.16,52.74h82s3.28-32.86,5.41-57.06c1.42-16.12-31.13-55.86-31.13-55.86Z"/><path class="cls-3" d="M427.38,359.66a1.74,1.74,0,1,1-1.74-1.75A1.74,1.74,0,0,1,427.38,359.66Z"/><circle class="cls-3" cx="427.38" cy="385.45" r="1.74"/><path class="cls-3" d="M429.13,412.16a1.75,1.75,0,1,1-1.75-1.74A1.74,1.74,0,0,1,429.13,412.16Z"/><path class="cls-38" d="M404.35,315.7s-22.45-.22-37.21,8.32c-19.74,11.42-34.7,37.3-34.7,37.3l36.91,29.89,20.11-11.51Z"/><path class="cls-38" d="M436.65,315.41s25.09,2.08,36.58,12.73,26.39,34.59,26.39,34.59l-29.76,28.48-39.65-19.94Z"/><path class="cls-8" d="M466.23,389.39s6.77-21.77,1.6-38.11"/><line class="cls-8" x1="374.22" y1="388.42" x2="385.54" y2="380.24"/><polyline class="cls-8" points="395.89 318.55 400.47 338.76 416.74 336.99"/><path class="cls-8" d="M429.61,356.07c-6.27-7.84-21.55-11.77-22.21-12l1.67-6.26"/><polyline class="cls-8" points="446.97 316.97 446.25 339.14 436.37 336.99"/><path class="cls-8" d="M429.94,356.07c3.13-7.84,12.51-12,12.84-12.19l-2.57-6.06"/><path class="cls-8" d="M428.87,348.23s1.53,13.89,1.87,27.27c.19,7.47.48,52.83.48,52.83"/><line class="cls-8" x1="337" y1="354.27" x2="376.36" y2="387.2"/><path class="cls-8" d="M467.67,383.71c.12-.56,27.62-27.64,27.62-27.64"/><path class="cls-4" d="M493.15,323.09c-.21-3.5-.34-7-.36-10.5,0-5.53,2.32-13.31,6.37-17.67,5.48-5.91,10-8.15,17.55-11,.94-.35,2.29-.51,2.66.41A1.91,1.91,0,0,1,519,286a15.08,15.08,0,0,1-2.6,3c-1.08.94-2.41,2-2.29,3.41a11.79,11.79,0,0,0,3.46,0c7.22-.68,15.15-2.37,21.34-6.25a4.32,4.32,0,0,1,2.4-.91,1.56,1.56,0,0,1,1.47,1.82,4.22,4.22,0,0,1,2.54-.79,1.68,1.68,0,0,1,1.44,2c.47-.12,1.53,0,1.53,2.13a12.77,12.77,0,0,1-.93,3.6c0-.09.45.44.47.47a3.29,3.29,0,0,1,.07,2.06c-.56,2.94-6.79,9.22-10.62,12.37-9.68,7.94-16.72,8.38-16.72,8.38"/><polyline class="cls-4" points="492.83 312.54 495.49 399.61 530.4 391.21 523.61 315.43"/><line class="cls-8" x1="494.51" y1="367.62" x2="494.51" y2="391.21"/><path class="cls-3" d="M520,320.39a13.1,13.1,0,0,1,2.77-2.75l.52-.37a1.24,1.24,0,0,0,.48-.4.14.14,0,0,0-.12-.21,1.1,1.1,0,0,0-.59.27c-.18.12-.35.25-.52.38a11,11,0,0,0-1,.87,13.22,13.22,0,0,0-1.77,2c-.13.18.16.33.28.17Z"/><path class="cls-3" d="M508.66,303.91a11,11,0,0,0,3.46-4.55,10.9,10.9,0,0,0,.72-2.76c.15-1.2.15-2.4.33-3.6a.16.16,0,0,0-.29-.13,6.61,6.61,0,0,0-.49,3,10.55,10.55,0,0,1-.56,2.95,11.29,11.29,0,0,1-3.31,4.93c-.09.08,0,.21.14.14Z"/><path class="cls-3" d="M544.87,294.85a40.64,40.64,0,0,1-5.06,4.93,9.71,9.71,0,0,1-3.13,1.81,13.55,13.55,0,0,1-3.58.54c-4.47.19-9,.13-13.15,2.14a10.43,10.43,0,0,0-4.84,4.22c-.11.21.17.46.34.26a19.74,19.74,0,0,1,2-2.17A12.5,12.5,0,0,1,520,304.9,19.25,19.25,0,0,1,526.5,303c2.38-.29,4.77-.24,7.16-.41a10.25,10.25,0,0,0,5.78-2A35.56,35.56,0,0,0,545,295c.09-.11-.07-.28-.17-.16Z"/><path class="cls-3" d="M544.77,290.18a60.34,60.34,0,0,1-6.65,5.73,25.4,25.4,0,0,1-3.37,2,41.64,41.64,0,0,1-4.07,1.56c-.14,0-.13.29,0,.28a16.75,16.75,0,0,0,7.55-3.39,48.15,48.15,0,0,0,6.6-6.09c.07-.06,0-.17-.1-.1Z"/><path class="cls-3" d="M541,287.77a20.36,20.36,0,0,1-5.9,5.07,28.75,28.75,0,0,1-3.5,1.67c-1.19.47-2.45.79-3.61,1.3-.23.1,0,.4.15.37a18.77,18.77,0,0,0,3.86-1.27,25.52,25.52,0,0,0,3.52-1.73,19.31,19.31,0,0,0,5.75-5.2c.11-.16-.15-.36-.27-.21Z"/><path class="cls-3" d="M444.21,263.46c.94,5.48-1.37,14.37,3.08,18.5,1.76,1.63,4,3,4.81,5.27.93,2.6-.35,4.73-1.24,7-1,2.62-1.19,5.08.21,7.48,2,3.34,0,8,0,8s-24.4,6.12-36.64.88c-1.39-5.32.26-15.88.92-21.27a67.89,67.89,0,0,1,4.43-17.28c.18-.44.36-.88.55-1.32"/><path class="cls-9" d="M437.79,283c2.91-2.39,6.34-2.26,7.78,1.63a7.87,7.87,0,0,1,.22,5.09,5.83,5.83,0,0,1-3.4,3.69,4.6,4.6,0,0,1-4.8-1"/><path class="cls-4" d="M439.4,265.34c-1.28-3.5-6.41-5.35-10-6.23s-7.33,2.57-11,3.31c-5.78,1.18-11.83,3.44-15,8.4-5.9,9.14-2.16,27.73,6.28,34.37,7,5.51,23.92,5.09,29.26-1.89,3.79-4.94,4.16-9.67,3.79-15.88s-2.55-19.22-2.55-19.22"/><path class="cls-3" d="M413.92,277.76c6.05-3.33,12.65-5.83,17.07-11.6a8.68,8.68,0,0,0,2-4.22c4.86,3.56,7.59,10.51,9,18.22,1.61-2.31,2.3-4,2.78-11.15,1-14.06-13.69-21-26.1-20.22-8.9.53-17.39,2.59-24.14,8.77-3.57,3.28-6.33,7.31-9.37,11.06a27.6,27.6,0,0,1-3.17,3.86c-1.46,1.21-3.35,1.73-4.76,3.09a9.93,9.93,0,0,0-2.87,8.68c.32,1.84,1.16,3.73.59,5.51-.69,2.21-3.14,3.22-5,4.64a10.47,10.47,0,0,0-3.73,10,128.25,128.25,0,0,0,47.76,7.8c-.36,0-4.75-10-5.66-11.08-2.42-2.81-5-6.26-5.57-10.09a7.64,7.64,0,0,1,1.1-4.8,16.81,16.81,0,0,1,3.26-3.78A35.93,35.93,0,0,1,413.92,277.76Z"/><path class="cls-32" d="M403,277.65a7.67,7.67,0,0,0,1.12,1.16q.61.58,1.2,1.2c.38.39.75.8,1.11,1.22l.54.62a7.1,7.1,0,0,0,.56.67.3.3,0,0,0,.47-.37,8.79,8.79,0,0,0-1.08-1.29c-.37-.42-.76-.84-1.15-1.24s-.78-.78-1.19-1.16a5.91,5.91,0,0,0-1.33-1.06c-.15-.07-.36.08-.25.25Z"/><path class="cls-32" d="M406.78,273.21c.87,1,1.79,2,2.7,3,.45.49.91,1,1.37,1.46l.66.71a2.19,2.19,0,0,0,.74.65.26.26,0,0,0,.31-.32A2,2,0,0,0,412,278l-.66-.7c-.47-.5-.94-1-1.42-1.48-.95-1-1.88-1.95-2.86-2.87a.18.18,0,0,0-.26.26Z"/><path class="cls-32" d="M411,270.65c1,.9,2,1.82,2.89,2.79.45.48.9,1,1.34,1.47.22.25.43.5.64.76a8.73,8.73,0,0,0,.67.81.3.3,0,0,0,.47-.36,7,7,0,0,0-.63-.81c-.22-.27-.45-.53-.68-.8-.45-.51-.92-1-1.4-1.49a28.9,28.9,0,0,0-3.05-2.69c-.19-.14-.42.17-.25.32Z"/><path class="cls-4" d="M404.71,297.59l-.36,18.11s12.39,17.78,24.52,32.53c7.92-13.41,7.78-32.82,7.78-32.82l-2.12-16.84"/><path class="cls-8" d="M415.14,306.06a22.38,22.38,0,0,0,10,2.86,20.37,20.37,0,0,0,11.2-2.52"/><path class="cls-3" d="M419.71,283.48a1.85,1.85,0,1,1-1.93-1.77A1.85,1.85,0,0,1,419.71,283.48Z"/><path class="cls-3" d="M438.64,280.8a1.85,1.85,0,1,1-1.93-1.77A1.85,1.85,0,0,1,438.64,280.8Z"/><path class="cls-3" d="M431.2,286.46a27.18,27.18,0,0,1,1.17,2.58,20.66,20.66,0,0,1,.77,2,2.51,2.51,0,0,1,.17,1.5c-.15.35-.76.39-1.09.42-.61.06-1.21,0-1.82.1a.26.26,0,0,0,0,.52,10,10,0,0,0,1.82,0,2.83,2.83,0,0,0,1.25-.36,1.42,1.42,0,0,0,.35-1.57,10.18,10.18,0,0,0-.76-2.15,15.91,15.91,0,0,0-1.08-2c-.22-.36-.44-.72-.65-1.08-.05-.07-.17,0-.13.07Z"/><path class="cls-4" d="M403.77,288.12c-4-.93-7.27.85-6.8,5.33a8.55,8.55,0,0,0,2.24,5.08,6.33,6.33,0,0,0,5.09,2,5,5,0,0,0,4.2-3.3"/><path class="cls-3" d="M398.94,292.24c0-.06.13-.15.17-.22l.12-.19a3.48,3.48,0,0,1,.28-.39,1.42,1.42,0,0,1,.65-.4,2.42,2.42,0,0,1,1.48.11,3.84,3.84,0,0,1,1.3.75,3.52,3.52,0,0,1,.93,1.62,6.81,6.81,0,0,1,.19,3.17c0,.26.33.38.4.11a5.76,5.76,0,0,0,0-3.11,4.48,4.48,0,0,0-1.05-2,3.61,3.61,0,0,0-3.24-1,1.84,1.84,0,0,0-.84.51,1.79,1.79,0,0,0-.3.42,1.59,1.59,0,0,0-.12.27,2.43,2.43,0,0,0,0,.38c0,.05.06.1.09,0Z"/><path class="cls-13" d="M413.08,280.68c1.62-2.55,5.27-3.24,7.33-1.47"/><path class="cls-13" d="M434,277.63a3.62,3.62,0,0,1,5.43-.44"/><path class="cls-12" d="M427.38,297.24c0,1.75.35,3.35,1,4a2.42,2.42,0,0,0,3.18.25c1-.57,1.49-3.49,1.49-3.49Z"/><path class="cls-39" d="M355,13.81a3.18,3.18,0,1,1-3.18-3.18A3.18,3.18,0,0,1,355,13.81Z"/><path class="cls-39" d="M114.22,436.59a3.19,3.19,0,1,1-3.19-3.18A3.19,3.19,0,0,1,114.22,436.59Z"/><path class="cls-39" d="M60.77,252.89a3.19,3.19,0,1,1-3.18-3.18A3.18,3.18,0,0,1,60.77,252.89Z"/><path class="cls-39" d="M33,102.35a3.18,3.18,0,1,1-3.18-3.18A3.18,3.18,0,0,1,33,102.35Z"/><path class="cls-40" d="M479.5,203.56a3.18,3.18,0,1,1-3.18-3.18A3.18,3.18,0,0,1,479.5,203.56Z"/><path class="cls-40" d="M1077,330.88a3.18,3.18,0,1,1-3.18-3.18A3.18,3.18,0,0,1,1077,330.88Z"/><path class="cls-39" d="M300.68,62.85a3.18,3.18,0,1,1-3.18-3.18A3.18,3.18,0,0,1,300.68,62.85Z"/><path class="cls-39" d="M151.83,40.59a3.19,3.19,0,1,1-3.18-3.19A3.19,3.19,0,0,1,151.83,40.59Z"/><path class="cls-12" d="M600.57,167.51a3.18,3.18,0,1,1-3.18-3.18A3.18,3.18,0,0,1,600.57,167.51Z"/><path class="cls-12" d="M486.94,49.88a3.18,3.18,0,1,1-3.18-3.18A3.18,3.18,0,0,1,486.94,49.88Z"/><path class="cls-40" d="M300.68,226.31a3.18,3.18,0,1,1-3.18-3.18A3.18,3.18,0,0,1,300.68,226.31Z"/><path class="cls-39" d="M692,164.33a3.18,3.18,0,1,1-3.18-3.18A3.18,3.18,0,0,1,692,164.33Z"/><path class="cls-40" d="M929.91,185.37a3.18,3.18,0,1,1-2.8-3.53A3.19,3.19,0,0,1,929.91,185.37Z"/><path class="cls-39" d="M784.38,27.26a3.18,3.18,0,1,1-3.18-3.18A3.18,3.18,0,0,1,784.38,27.26Z"/><path class="cls-39" d="M980.48,105.53a3.19,3.19,0,1,1-3.18-3.18A3.18,3.18,0,0,1,980.48,105.53Z"/><path class="cls-12" d="M1048.85,219.7a3.18,3.18,0,1,1-3.18-3.18A3.18,3.18,0,0,1,1048.85,219.7Z"/><path class="cls-12" d="M1062.58,109.71a3.19,3.19,0,1,1-3.19-3.18A3.18,3.18,0,0,1,1062.58,109.71Z"/><circle class="cls-39" cx="178.41" cy="237.43" r="3.18"/><path class="cls-39" d="M824.9,239.22a3.18,3.18,0,1,1-3.18-3.18A3.18,3.18,0,0,1,824.9,239.22Z"/><path class="cls-12" d="M292.69,379.74a1.8,1.8,0,0,1-1.21-3.13l9.63-8.66a1.8,1.8,0,0,1,2.41,2.68l-9.63,8.65A1.77,1.77,0,0,1,292.69,379.74Z"/><path class="cls-12" d="M99.36,209.69a1.8,1.8,0,0,1-1.21-3.14l9.63-8.66a1.8,1.8,0,0,1,2.41,2.68l-9.63,8.66A1.77,1.77,0,0,1,99.36,209.69Z"/><path class="cls-12" d="M.06,182a1.82,1.82,0,0,1,.22-1.45A1.8,1.8,0,0,1,2.77,180l10.9,7a1.8,1.8,0,1,1-1.94,3L.83,183A1.82,1.82,0,0,1,.06,182Z"/><path class="cls-40" d="M176.67,158.82a2,2,0,0,1-.42,0l-12.6-3a1.8,1.8,0,1,1,.83-3.5l12.6,3a1.8,1.8,0,0,1-.41,3.55Z"/><path class="cls-40" d="M533.52,234.88a1.83,1.83,0,0,1-1-.3l-10.78-7.18a1.8,1.8,0,0,1,2-3l10.78,7.18a1.8,1.8,0,0,1-1,3.3Z"/><path class="cls-39" d="M945.32,243.17a1.76,1.76,0,0,1-1.29-.55l-9-9.28a1.8,1.8,0,1,1,2.58-2.51l9,9.28a1.8,1.8,0,0,1-1.29,3.06Z"/><path class="cls-40" d="M980.81,55.77a2.26,2.26,0,0,1-.31-.23l-9.66-8.63a1.8,1.8,0,1,1,2.41-2.68l9.65,8.63A1.8,1.8,0,0,1,983,55.4,1.82,1.82,0,0,1,980.81,55.77Z"/><path class="cls-40" d="M692.68,6.84a1.79,1.79,0,0,1-1.63-1,1.81,1.81,0,0,1,.86-2.4L698.85.17a1.8,1.8,0,1,1,1.53,3.26l-6.94,3.25A1.89,1.89,0,0,1,692.68,6.84Z"/><path class="cls-12" d="M1010,176.68a1.8,1.8,0,0,1-.76-3.43l6.94-3.24a1.8,1.8,0,1,1,1.52,3.26l-6.93,3.24A1.76,1.76,0,0,1,1010,176.68Z"/><path class="cls-12" d="M871.86,33.1a2,2,0,0,1-.53-.08L864,30.79a1.8,1.8,0,1,1,1-3.45l7.33,2.24a1.8,1.8,0,0,1-.52,3.52Z"/><path class="cls-12" d="M482,9.76a1.57,1.57,0,0,1-.52-.08l-7.33-2.23A1.8,1.8,0,1,1,475.16,4l7.33,2.23A1.8,1.8,0,0,1,482,9.76Z"/><path class="cls-39" d="M946.74,133.39a1.8,1.8,0,0,1-.88-3.37l6.7-3.71a1.8,1.8,0,1,1,1.75,3.15l-6.7,3.71A1.84,1.84,0,0,1,946.74,133.39Z"/><path class="cls-39" d="M1100.55,221.37a1.8,1.8,0,0,1-2.47-2.47l3.9-6.59a1.8,1.8,0,0,1,3.1,1.84l-3.9,6.59A1.81,1.81,0,0,1,1100.55,221.37Z"/><path class="cls-39" d="M158.8,106.23a1.83,1.83,0,0,1-1-.29l-6.44-4.15a1.8,1.8,0,0,1,2-3l6.44,4.15a1.8,1.8,0,0,1-1,3.32Z"/><path class="cls-39" d="M17.62,307.86a1.85,1.85,0,0,1-.8.63l-7.09,2.89a1.8,1.8,0,1,1-1.36-3.33l7.09-2.89a1.8,1.8,0,0,1,2.16,2.7Z"/><path class="cls-39" d="M814.8,359.25a1.84,1.84,0,0,1-.79.63l-7.09,2.89a1.8,1.8,0,0,1-1.36-3.34l7.09-2.89a1.8,1.8,0,0,1,2.15,2.71Z"/><path class="cls-39" d="M619.57,14.41a1.8,1.8,0,0,1-1-.26l-6.55-4A1.8,1.8,0,0,1,613.9,7.1l6.55,4a1.8,1.8,0,0,1-.88,3.34Z"/><path class="cls-40" d="M80.51,155.24a1.8,1.8,0,0,1-.55-3.51l7.28-2.38a1.8,1.8,0,0,1,1.12,3.42l-7.29,2.38A1.77,1.77,0,0,1,80.51,155.24Z"/><path class="cls-12" d="M207.41,18.17h-.19l-7.62-.76a1.8,1.8,0,0,1,.36-3.58l7.62.76a1.8,1.8,0,0,1-.17,3.59Z"/><path class="cls-39" d="M592.31,411.08l-.16-.09-6.58-3.92a1.8,1.8,0,0,1,1.85-3.09L594,407.9a1.8,1.8,0,0,1-1.68,3.18Z"/><line class="cls-41" x1="661.54" y1="258.51" x2="664.64" y2="259.91"/><circle class="cls-41" cx="690.45" cy="268.98" r="9.48"/><line class="cls-42" x1="699.93" y1="269.42" x2="706.96" y2="270.67"/><path class="cls-41" d="M675.43,264.37c-.51,4.81-4.2,8.37-8.23,7.94s-6.9-4.68-6.39-9.49,4.2-8.37,8.24-7.95S675.94,259.55,675.43,264.37Z"/><path class="cls-41" d="M682.37,264.29a14.08,14.08,0,0,0-6.9-1.72"/><line class="cls-41" x1="445.64" y1="275.87" x2="442.46" y2="277.1"/><circle class="cls-41" cx="416.18" cy="284.69" r="9.48"/><line class="cls-42" x1="406.69" y1="284.59" x2="399.6" y2="285.44"/><path class="cls-41" d="M431.44,280.94c.23,4.83,3.71,8.59,7.77,8.39s7.15-4.28,6.91-9.11-3.71-8.6-7.77-8.4S431.2,276.1,431.44,280.94Z"/><path class="cls-41" d="M424.51,280.46a14.12,14.12,0,0,1,7-1.32"/><line class="cls-41" x1="253.95" y1="274.34" x2="250.55" y2="274.55"/><circle class="cls-41" cx="223.2" cy="273.82" r="9.48"/><line class="cls-42" x1="214.19" y1="270.86" x2="207.18" y2="269.52"/><path class="cls-41" d="M238.88,274.87c-1.24,4.68.94,9.32,4.86,10.35s8.11-1.91,9.35-6.59-.93-9.32-4.86-10.36S240.12,270.19,238.88,274.87Z"/><path class="cls-41" d="M232.43,272.32a14,14,0,0,1,7.06.85"/></svg>